<?xml version="1.0" encoding="UTF-8"?>
<svg version="1.1" xmlns="http://www.w3.org/2000/svg" width="1024" height="1024">
<path d="M0 0 C337.92 0 675.84 0 1024 0 C1024 337.92 1024 675.84 1024 1024 C686.08 1024 348.16 1024 0 1024 C0 686.08 0 348.16 0 0 Z " fill="#060F0D" transform="translate(0,0)"/>
<path d="M0 0 C3.38846545 2.75312818 5.78294833 4.9277142 6.24707031 9.35888672 C6.47708654 17.71845256 4.70121831 24.35305332 1.75 32.125 C1.30543457 33.3305957 0.86086914 34.53619141 0.40283203 35.77832031 C-4.35248755 48.50496681 -10.06887443 60.78419548 -16 73 C-16.72935957 74.52725164 -17.45854643 76.05458578 -18.1875 77.58203125 C-36.95806336 116.45661135 -63.78306325 158.64869405 -106.07421875 174.125 C-111.49144577 175.60390891 -117.11475084 175.3686275 -122.6875 175.375 C-123.79544922 175.39949219 -124.90339844 175.42398438 -126.04492188 175.44921875 C-141.24878356 175.50253445 -153.28678801 169.12331802 -165.4375 160.5 C-177.02194412 151.99215103 -177.02194412 151.99215103 -190.72265625 149.4296875 C-207.12465426 153.53722045 -215.3634711 168.96385769 -223.46044922 182.40722656 C-227.53918452 189.27626698 -231.46784512 196.2300413 -235.40087891 203.18310547 C-258.07941337 243.13194984 -258.07941337 243.13194984 -269 256 C-269.68449219 256.81726563 -270.36898438 257.63453125 -271.07421875 258.4765625 C-280.2671735 269.09739329 -291.52100129 278.88555178 -306.15966797 280.19287109 C-318.14066049 280.60670064 -328.06668379 280.42449879 -339 275 C-339.87914062 274.58492187 -340.75828125 274.16984375 -341.6640625 273.7421875 C-354.87338964 266.43914561 -365.83781141 253.17844678 -375.0703125 241.44921875 C-382.70333939 231.76114616 -392.57089323 219.42068328 -405.5234375 217.65625 C-414.86631715 217.13283938 -421.43278378 220.64784902 -428.5 226.5 C-442.18934582 239.39957586 -451.98648564 256.94289446 -462.33642578 272.50952148 C-492.15979782 317.31676197 -492.15979782 317.31676197 -513 333 C-514.37478516 334.04607422 -514.37478516 334.04607422 -515.77734375 335.11328125 C-538.58375368 352.09813914 -538.58375368 352.09813914 -553 350 C-556.00197464 348.19881522 -557.45166366 347.09667268 -559 344 C-559.2734375 341.828125 -559.2734375 341.828125 -559.375 339.25 C-559.42398438 338.40953125 -559.47296875 337.5690625 -559.5234375 336.703125 C-558.59929083 331.9306661 -555.7349532 329.20075345 -551.875 326.52929688 C-549.38260236 325.00571174 -546.85805763 323.55788934 -544.3125 322.125 C-537.05425568 317.88545917 -530.1954486 313.73324846 -524 308 C-523.46665039 307.51289551 -522.93330078 307.02579102 -522.38378906 306.52392578 C-505.21770472 290.67939478 -492.80427677 271.38333131 -479.99853516 252.02880859 C-443.66235618 197.12855889 -443.66235618 197.12855889 -418.90625 191.4375 C-404.12597798 189.21251281 -390.32986325 192.55273198 -378 201 C-368.53113538 208.73839001 -360.41460201 217.69147468 -352.8125 227.25 C-349.07203768 231.85667465 -345.09853116 236.15133443 -340.9375 240.375 C-340.37200439 240.95797852 -339.80650879 241.54095703 -339.22387695 242.14160156 C-331.99861258 249.35750813 -324.48949687 253.97236917 -314.125 254.375 C-305.25981901 254.17823889 -299.8042768 250.51376415 -293.41796875 244.578125 C-284.3678722 234.92858748 -277.54247038 223.42751492 -271 212 C-270.3495874 210.86812256 -270.3495874 210.86812256 -269.68603516 209.71337891 C-265.49470169 202.41363316 -261.32198047 195.10309801 -257.17626953 187.77734375 C-236.84018077 151.8623303 -236.84018077 151.8623303 -222 137 C-221.23945312 136.22785156 -220.47890625 135.45570313 -219.6953125 134.66015625 C-209.96053068 125.35841633 -199.34177866 122.47205995 -186.23046875 122.73046875 C-171.50086317 123.4031594 -159.09608155 131.96872259 -147.515625 140.328125 C-137.46160012 147.00999247 -128.35501882 150.48860883 -116.32421875 148.57421875 C-89.97238756 142.35808491 -71.1052586 115.45277688 -57.6081543 93.64453125 C-55.68258574 90.46112819 -53.82917609 87.23958761 -52 84 C-51.4126709 82.96311035 -51.4126709 82.96311035 -50.81347656 81.90527344 C-41.72598974 65.68546417 -34.51789216 48.59304172 -28.0703125 31.171875 C-27.70663826 30.19346146 -27.70663826 30.19346146 -27.33561707 29.19528198 C-26.16299197 26.03472833 -25.00816161 22.87041627 -23.87915039 19.69384766 C-21.03359515 11.91261495 -17.9302435 5.50535231 -11.6875 -0.0625 C-7.63143233 -1.47740733 -4.09814307 -1.23983676 0 0 Z " fill="#2AE670" transform="translate(786,289)"/>
<path d="M0 0 C1.28632324 -0.00574036 1.28632324 -0.00574036 2.59863281 -0.01159668 C4.40040266 -0.01430229 6.20221271 -0.0070364 8.00390625 0.00976562 C10.7430884 0.03119593 13.47964827 0.00991899 16.21875 -0.015625 C17.97917239 -0.01298148 19.73959316 -0.00785601 21.5 0 C22.30856445 -0.00809692 23.11712891 -0.01619385 23.95019531 -0.02453613 C30.21245104 0.07742423 35.58756955 1.61284048 40.27978516 5.94299316 C45.75950312 12.15814696 46.04207343 17.65887142 46.01069641 25.56292725 C46.01643473 27.09114243 46.01643473 27.09114243 46.02228898 28.65023065 C46.03261858 32.06863053 46.02862682 35.48686243 46.0246582 38.90527344 C46.02900476 41.35443274 46.03418772 43.80359067 46.04014587 46.25274658 C46.05216157 52.21816246 46.05468623 58.18351218 46.05234561 64.1489341 C46.05056206 68.9995249 46.05231289 73.85010205 46.05657005 78.70069122 C46.05716524 79.39125558 46.05776043 80.08181993 46.05837366 80.79331048 C46.05958543 82.19626123 46.06079956 83.59921198 46.06201603 85.00216272 C46.07289287 98.15994356 46.07072874 111.31769878 46.06463119 124.47548106 C46.05946513 136.5033212 46.07070896 148.53108027 46.08972941 160.55890438 C46.10912 172.9157994 46.11736146 185.2726561 46.11360615 197.62956643 C46.11169555 204.56424644 46.11416771 211.49885751 46.12832069 218.43352509 C46.14150021 224.95718774 46.13895779 231.48071523 46.12590981 238.0043869 C46.12354359 240.39687149 46.12628031 242.78936747 46.13453293 245.18183899 C46.14499814 248.45195989 46.1369009 251.72153668 46.1242218 254.99163818 C46.13159609 255.93474909 46.13897037 256.87785999 46.14656812 257.84955001 C46.08825778 265.0158969 44.67967934 271.05782718 41.1875 277.34375 C33.18222247 284.52797343 23.18106051 284.13010627 13.05419922 283.99780273 C10.62268218 283.96872228 8.19333722 283.97725072 5.76171875 283.99023438 C4.1926979 283.98399833 2.62368382 283.97560843 1.0546875 283.96484375 C0.33989227 283.96777939 -0.37490295 283.97071503 -1.11135864 283.97373962 C-8.37091293 283.83987422 -14.99933455 281.78191545 -20.25 276.53125 C-23.76749485 271.11238031 -23.68070025 266.31068356 -23.65113831 260.06887817 C-23.65793498 259.01583964 -23.66473164 257.96280111 -23.67173427 256.87785232 C-23.69072336 253.34962016 -23.68826828 249.82173463 -23.68579102 246.29345703 C-23.69476739 243.76370802 -23.70497535 241.23396312 -23.71632385 238.70422363 C-23.7400848 232.5460958 -23.74948702 226.38809491 -23.75116099 220.22992553 C-23.75258773 215.22345022 -23.75875826 210.21700329 -23.76826286 205.21053696 C-23.79467368 191.00941442 -23.80852223 176.80835983 -23.80627144 162.60721256 C-23.80615157 161.84206191 -23.8060317 161.07691125 -23.8059082 160.28857422 C-23.80578556 159.5224871 -23.80566292 158.75639998 -23.80553656 157.9670981 C-23.80431711 145.55056948 -23.83302951 133.13431374 -23.8753233 120.71786405 C-23.91842958 107.96203603 -23.93913309 95.20634108 -23.93654197 82.45043838 C-23.93554663 75.29159063 -23.94376251 68.13302905 -23.97607613 60.97424698 C-24.00627066 54.24192584 -24.00537063 47.51030915 -23.98352623 40.77792358 C-23.98038639 38.30760695 -23.98749125 35.83725278 -24.0056076 33.36700058 C-24.02874762 29.99315104 -24.01485238 26.62139328 -23.99171448 23.24758911 C-24.00714517 22.2711199 -24.02257586 21.29465069 -24.03847414 20.2885915 C-23.93572413 13.50424048 -22.14405685 9.29814019 -17.25 4.53125 C-11.73607983 0.62310189 -6.64029322 -0.06649556 0 0 Z " fill="#25DB67" transform="translate(741.25,467.46875)"/>
<path d="M0 0 C0.79141891 -0.0066568 1.58283783 -0.0133136 2.39823914 -0.02017212 C4.06649466 -0.03025693 5.73479019 -0.03499044 7.40307617 -0.03466797 C9.93151687 -0.03903195 12.45819666 -0.07536789 14.98632812 -0.11328125 C32.70930408 -0.23819666 32.70930408 -0.23819666 39.19628906 5.78369141 C43.8948822 11.07668488 44.93287446 15.20667831 44.89741516 22.13484192 C44.90315348 23.32087376 44.90315348 23.32087376 44.90900773 24.53086585 C44.91933521 27.18316093 44.91534604 29.83523942 44.91137695 32.48754883 C44.91572363 34.388089 44.92090663 36.28862741 44.92686462 38.18916321 C44.94027224 43.35454057 44.94083122 48.51984484 44.93830132 53.68523622 C44.93723257 57.99682763 44.94211264 62.3084042 44.94690675 66.61999243 C44.95800853 76.79297822 44.95843589 86.9659271 44.95239258 97.13891602 C44.94635441 107.63283236 44.95865832 118.12661456 44.97996265 128.62050802 C44.99757984 137.6295494 45.00357972 146.6385481 45.0003249 155.64760607 C44.99851173 161.0284675 45.00115151 166.40923329 45.01503944 171.79007912 C45.02761465 176.85194919 45.0256765 181.91361035 45.01262856 186.97547722 C45.01026237 188.83181962 45.01299895 190.6881767 45.02125168 192.54450226 C45.03171759 195.0819376 45.02361984 197.6186718 45.01094055 200.15608215 C45.01831484 200.88780775 45.02568912 201.61953335 45.03328687 202.37343246 C44.97317553 208.10592784 43.77463117 212.83832891 39.98828125 217.26171875 C39.13363281 217.94814453 39.13363281 217.94814453 38.26171875 218.6484375 C37.69710937 219.11894531 37.1325 219.58945312 36.55078125 220.07421875 C31.44072822 223.44268228 26.83601713 223.65540108 20.8984375 223.671875 C20.05883987 223.6785318 19.21924225 223.6851886 18.35420227 223.69204712 C16.58161602 223.70214779 14.80899195 223.70686494 13.03637695 223.70654297 C10.34326495 223.71090664 7.65180577 223.74722572 4.95898438 223.78515625 C3.23047431 223.79102712 1.50195652 223.7949947 -0.2265625 223.796875 C-1.02266434 223.81124603 -1.81876617 223.82561707 -2.63899231 223.84042358 C-9.22513107 223.78738342 -14.48451626 221.92518722 -19.421875 217.484375 C-19.87691406 216.89914062 -20.33195313 216.31390625 -20.80078125 215.7109375 C-21.27386719 215.12054687 -21.74695313 214.53015625 -22.234375 213.921875 C-24.81546562 210.29584458 -24.51149904 206.95273484 -24.51045227 202.65692139 C-24.51412896 201.85498612 -24.51780565 201.05305085 -24.52159375 200.22681451 C-24.53265613 197.52457569 -24.53647875 194.82237529 -24.5402832 192.12011719 C-24.54654593 190.18869402 -24.55319256 188.25727206 -24.56019592 186.32585144 C-24.57762345 181.06747444 -24.58816247 175.80910655 -24.59640145 170.55070782 C-24.60154791 167.26712319 -24.6076238 163.98354142 -24.61391258 160.6999588 C-24.63296957 150.43129895 -24.64719961 140.16264631 -24.65552455 129.89397216 C-24.66529975 118.03146166 -24.69162461 106.16913762 -24.73202544 94.30669284 C-24.76216306 85.14400025 -24.77699119 75.98136117 -24.78030556 66.81861997 C-24.78265875 61.3432573 -24.79165405 55.86809372 -24.81676674 50.39278412 C-24.84001121 45.24145252 -24.84429524 40.09045159 -24.83400536 34.93908119 C-24.833509 33.04844629 -24.83985868 31.15779532 -24.8535614 29.26721001 C-24.87122698 26.6853717 -24.86420084 24.10472691 -24.85102844 21.52288818 C-24.86199769 20.77521266 -24.87296693 20.02753713 -24.88426858 19.25720477 C-24.82124483 14.13840292 -23.55862978 11.29100125 -20.36328125 7.3359375 C-14.06078909 1.30746673 -8.5417954 0.02534368 0 0 Z " fill="#23D764" transform="translate(631.36328125,527.6640625)"/>
<path d="M0 0 C0.79472717 -0.0127597 1.58945435 -0.02551941 2.40826416 -0.03866577 C3.68488922 -0.04200424 3.68488922 -0.04200424 4.98730469 -0.04541016 C6.31541168 -0.05539536 6.31541168 -0.05539536 7.67034912 -0.06558228 C9.54306973 -0.07569807 11.41582631 -0.08039963 13.28857422 -0.08007812 C16.13538087 -0.08443622 18.9806175 -0.12072451 21.82714844 -0.15869141 C23.65136192 -0.16456304 25.47558272 -0.16853011 27.29980469 -0.17041016 C28.56428436 -0.19196671 28.56428436 -0.19196671 29.85430908 -0.21395874 C36.42045107 -0.16391367 41.93915518 1.4150896 46.74902344 6.07177734 C47.29236328 6.92255859 47.29236328 6.92255859 47.84667969 7.79052734 C48.22695313 8.35771484 48.60722656 8.92490234 48.99902344 9.50927734 C50.88741062 13.20500505 51.03710401 16.70712392 51.04962158 20.81159973 C51.05533173 21.93447891 51.06104187 23.05735809 51.06692505 24.21426392 C51.06860184 26.05569473 51.06860184 26.05569473 51.0703125 27.93432617 C51.07775986 29.87880394 51.07775986 29.87880394 51.08535767 31.86256409 C51.09845908 35.4164024 51.10492218 38.97022184 51.10936832 42.52408051 C51.11230264 44.7460081 51.11640812 46.96793057 51.1208725 49.18985558 C51.13454135 56.14650791 51.14421106 63.10314849 51.14807439 70.05981332 C51.15255408 78.08149927 51.17010029 86.10301474 51.19907498 94.12464887 C51.22071271 100.33116052 51.23077978 106.53762427 51.23211551 112.74417323 C51.23316202 116.44832367 51.23903698 120.15231371 51.25693512 123.85642433 C51.27652319 127.99056928 51.27211853 132.12435865 51.265625 136.25854492 C51.27483978 137.48009277 51.28405457 138.70164062 51.29354858 139.96020508 C51.25865801 147.04800703 50.97577973 152.54836443 46.33105469 158.21630859 C45.77933594 158.67392578 45.22761719 159.13154297 44.65917969 159.60302734 C44.11777344 160.07353516 43.57636719 160.54404297 43.01855469 161.02880859 C37.65008726 164.23994744 31.77853269 164.60765382 25.66699219 164.62646484 C24.5152803 164.63645004 24.5152803 164.63645004 23.34030151 164.64663696 C21.72510146 164.65670543 20.1098603 164.66145579 18.49462891 164.66113281 C16.04746757 164.66550361 13.60211635 164.70187536 11.15527344 164.73974609 C-6.24082317 164.86815146 -6.24082317 164.86815146 -13.24707031 158.25537109 C-13.69050781 157.58634766 -14.13394531 156.91732422 -14.59082031 156.22802734 C-15.28691406 155.220625 -15.28691406 155.220625 -15.99707031 154.19287109 C-18.00651966 150.69786455 -18.22068839 147.84415022 -18.23799133 143.8964386 C-18.24514664 142.77637924 -18.25230194 141.65631989 -18.25967407 140.50231934 C-18.26236298 139.27267456 -18.26505188 138.04302979 -18.26782227 136.77612305 C-18.27439346 135.48155685 -18.28096466 134.18699066 -18.28773499 132.85319519 C-18.30876101 128.5575789 -18.31913745 124.26196232 -18.32910156 119.96630859 C-18.33314996 118.48587717 -18.33726691 117.00544593 -18.34145164 115.52501488 C-18.36050179 108.56782637 -18.37473199 101.61064844 -18.38306361 94.65343887 C-18.3928294 86.63170242 -18.41913219 78.6102424 -18.45956451 70.58860332 C-18.48976613 64.38294664 -18.5045364 58.17736901 -18.50784463 51.97164029 C-18.51019093 48.26794394 -18.51909585 44.56454295 -18.5443058 40.86092567 C-18.57200727 36.72440956 -18.56774307 32.58850739 -18.56079102 28.4519043 C-18.57360107 27.23238068 -18.58641113 26.01285706 -18.59960938 24.75637817 C-18.5542788 17.35237319 -18.0040183 11.38520268 -12.64343739 5.776021 C-8.7504389 2.36474861 -5.2131535 0.05715548 0 0 Z " fill="#23D664" transform="translate(514.0908203125,586.70947265625)"/>
<path d="M0 0 C0.82497482 -0.0033284 1.64994965 -0.0066568 2.49992371 -0.01008606 C4.24579308 -0.01514793 5.99167212 -0.01749461 7.73754883 -0.01733398 C10.39746237 -0.01951444 13.05695704 -0.03766114 15.71679688 -0.05664062 C17.41536317 -0.05957598 19.11393143 -0.06155982 20.8125 -0.0625 C21.60332474 -0.06968552 22.39414948 -0.07687103 23.2089386 -0.08427429 C30.90346299 -0.05273745 35.97202194 1.65970965 41.60546875 7.16796875 C45.73447338 14.0021833 45.76032927 20.39929729 45.7824707 28.15551758 C45.7890419 29.15776871 45.7956131 30.16001984 45.80238342 31.19264221 C45.82206525 34.50342896 45.83376651 37.81417049 45.84375 41.125 C45.84782553 42.25781591 45.85190105 43.39063183 45.85610008 44.5577755 C45.87693714 50.55161734 45.89125015 56.54543644 45.90063477 62.53930664 C45.91170538 68.72310984 45.94612 74.90655384 45.98580647 81.09022999 C46.01196954 85.85239829 46.02032626 90.61448085 46.02391624 95.37671471 C46.02878149 97.65602741 46.04039362 99.9353363 46.05895424 102.21457863 C46.08334251 105.40742023 46.08238107 108.59932979 46.07543945 111.79223633 C46.08824951 112.7280957 46.10105957 113.66395508 46.11425781 114.62817383 C46.06184626 121.26163723 44.72719111 126.61749017 40.26428699 131.69335651 C34.51401792 136.96796894 27.59370572 137.48927028 20.1796875 137.57421875 C19.39205521 137.5856189 18.60442291 137.59701904 17.79292297 137.60876465 C16.13487022 137.62755429 14.47674463 137.64068842 12.81860352 137.6484375 C10.30935728 137.66784201 7.80340057 137.72996762 5.29492188 137.79296875 C-2.82514401 137.90365056 -9.43569898 137.77955832 -16.47338867 133.24414062 C-22.2198501 127.03396042 -22.97987541 120.56525122 -22.91210938 112.38085938 C-22.91911865 111.32940231 -22.92612793 110.27794525 -22.93334961 109.19462585 C-22.95087749 105.73755057 -22.93932471 102.28130159 -22.92578125 98.82421875 C-22.92847764 96.41100915 -22.93236129 93.99780062 -22.93737793 91.58459473 C-22.94326596 86.5343183 -22.93473204 81.48432543 -22.91601562 76.43408203 C-22.893227 69.97116777 -22.90635374 63.50891804 -22.93030548 57.04602814 C-22.94478196 52.06507388 -22.94014887 47.08427632 -22.92979431 42.10331726 C-22.92713217 39.72075827 -22.93037868 37.3381849 -22.93971252 34.9556427 C-22.94990813 31.62173959 -22.93433349 28.28890218 -22.91210938 24.95507812 C-22.9202063 23.97717819 -22.92830322 22.99927826 -22.93664551 21.991745 C-22.8518092 15.09777263 -21.54759066 9.3617128 -16.578125 4.328125 C-16.00191406 3.96589844 -15.42570312 3.60367188 -14.83203125 3.23046875 C-13.96384766 2.66005859 -13.96384766 2.66005859 -13.078125 2.078125 C-8.83707041 -0.21460289 -4.67949208 0.00653465 0 0 Z " fill="#22D664" transform="translate(408.39453125,613.83203125)"/>
<path d="M0 0 C2.24728838 -0.00967616 4.49364957 -0.04072084 6.74072266 -0.07226562 C15.59855627 -0.1373773 22.95413441 0.314407 30.83056641 4.86523438 C37.58095531 12.19422805 37.61037838 20.65874479 37.54931641 30.18164062 C37.55201785 31.51725038 37.55590566 32.8528582 37.56091309 34.1884613 C37.56677567 36.97308271 37.55835033 39.75718723 37.53955078 42.54174805 C37.51673957 46.09133484 37.5299168 49.63971293 37.55384064 53.18925571 C37.56836855 55.94244827 37.56366142 58.69535919 37.55332947 61.44856071 C37.54940644 63.38714774 37.56144221 65.32574622 37.57385254 67.26429749 C37.49308864 74.89709838 36.99618928 80.87007676 31.64172363 86.75221252 C25.89019813 91.9831985 19.78577192 92.55496774 12.40087891 92.57617188 C11.58489227 92.58282867 10.76890564 92.58948547 9.92819214 92.59634399 C8.2086613 92.60642976 6.48909164 92.61116228 4.76953125 92.61083984 C2.15770094 92.61520989 -0.45243325 92.65156205 -3.06396484 92.68945312 C-4.74234454 92.69532306 -6.42073219 92.69929127 -8.09912109 92.70117188 C-8.8702121 92.71554291 -9.6413031 92.72991394 -10.4357605 92.74472046 C-16.59987111 92.69352116 -21.90268937 91.07976703 -26.51315308 86.82821655 C-30.8148446 81.9448642 -32.22850186 77.59442074 -32.2565918 71.18408203 C-32.26612381 69.98578766 -32.27565582 68.78749329 -32.28547668 67.55288696 C-32.28456528 66.26635223 -32.28365387 64.9798175 -32.28271484 63.65429688 C-32.28660609 62.31057606 -32.29094165 60.96685646 -32.29570007 59.62313843 C-32.30314762 56.81056731 -32.30288206 53.99812174 -32.29760742 51.18554688 C-32.29181965 47.59560719 -32.3087335 44.00618461 -32.3319521 40.41633034 C-32.34674371 37.64178503 -32.34755373 34.86736264 -32.34444237 32.09278488 C-32.34519997 30.13032506 -32.35903078 28.16788422 -32.37312317 26.20547485 C-32.3269456 17.27509874 -31.44761228 10.89064673 -24.98193359 4.24023438 C-17.06809635 -0.47439207 -8.93437974 0.02325148 0 0 Z " fill="#1FCF5F" transform="translate(306.98193359375,658.759765625)"/>
<path d="M0 0 C2 0.25 2 0.25 4 1 C4.33 1.99 4.66 2.98 5 4 C6.32 3.01 7.64 2.02 9 1 C9 1.66 9 2.32 9 3 C9.66 3 10.32 3 11 3 C11.33 2.34 11.66 1.68 12 1 C12 1.66 12 2.32 12 3 C12.94875 3.12375 13.8975 3.2475 14.875 3.375 C18 4 18 4 20 6 C20.34490322 10.05261287 20.30163882 11.54754176 18 15 C18 16.32 18 17.64 18 19 C18.99 17.68 19.98 16.36 21 15 C21.33 15.99 21.66 16.98 22 18 C22.66 18.33 23.32 18.66 24 19 C23.34 19.66 22.68 20.32 22 21 C23.65 20.67 25.3 20.34 27 20 C26.505 17.525 26.505 17.525 26 15 C26.78375 15.020625 27.5675 15.04125 28.375 15.0625 C30.98114961 15.18684063 30.98114961 15.18684063 33 14 C33.804375 14.969375 34.60875 15.93875 35.4375 16.9375 C37.15986865 19.02262962 37.15986865 19.02262962 39 21 C39.66 21 40.32 21 41 21 C41.495 19.515 41.495 19.515 42 18 C42.66 18.66 43.32 19.32 44 20 C44.495 19.505 44.495 19.505 45 19 C45.66 19 46.32 19 47 19 C47.66 17.35 48.32 15.7 49 14 C49.66 14 50.32 14 51 14 C51.66 11.36 52.32 8.72 53 6 C55.8125 5.75 55.8125 5.75 59 6 C60.875 8 60.875 8 62 10 C62.66 9.34 63.32 8.68 64 8 C64.02505615 8.62567871 64.0501123 9.25135742 64.07592773 9.89599609 C64.19175273 12.72254619 64.31453985 15.54875169 64.4375 18.375 C64.47681641 19.35984375 64.51613281 20.3446875 64.55664062 21.359375 C64.59853516 22.30039062 64.64042969 23.24140625 64.68359375 24.2109375 C64.72025146 25.08024902 64.75690918 25.94956055 64.79467773 26.84521484 C64.87401544 29.0483262 64.87401544 29.0483262 66 31 C66.63063582 36.95465745 66.07153831 41.74866031 63 47 C57.91474667 52.70284224 52.72445195 54.72651501 45.04345703 55.29052734 C43.61507205 55.31689682 42.1864341 55.33154027 40.7578125 55.3359375 C39.60610062 55.3459227 39.60610062 55.3459227 38.43112183 55.35610962 C36.81592178 55.36617809 35.20068062 55.37092845 33.58544922 55.37060547 C31.13828788 55.37497627 28.69293667 55.41134802 26.24609375 55.44921875 C10.27528195 55.5735544 10.27528195 55.5735544 4 51 C0.1854789 47.23403542 -2.3448704 43.70573732 -2.60522461 38.25219727 C-2.56958916 36.52264498 -2.50053528 34.79353665 -2.40234375 33.06640625 C-2.37402969 32.14786362 -2.34571564 31.22932098 -2.31654358 30.28294373 C-2.2193054 27.37420484 -2.07849517 24.46941062 -1.9375 21.5625 C-1.86769245 19.5840795 -1.80060794 17.60556093 -1.73632812 15.62695312 C-1.21793402 1.21793402 -1.21793402 1.21793402 0 0 Z " fill="#13AE4C" transform="translate(499,696)"/>
<path d="M0 0 C0.66 0.66 1.32 1.32 2 2 C1.34 2 0.68 2 0 2 C0 1.34 0 0.68 0 0 Z M-40 2 C-37.97954558 2.60183749 -35.97888961 3.27306096 -34 4 C-33.67 4.66 -33.34 5.32 -33 6 C-30.98330173 7.13350534 -30.98330173 7.13350534 -29 8 C-30.46525629 11.97712421 -32.01775116 14.01775116 -35 17 C-36.52561108 20.69358471 -37.46911544 23.18029984 -36 27 C-35.835 26.360625 -35.67 25.72125 -35.5 25.0625 C-34 23 -34 23 -32.15625 22.51171875 C-29.42755164 22.18051804 -26.74831322 22 -24 22 C-21.7986134 18.19572508 -21.7986134 18.19572508 -21 14 C-18.08517222 13.19032562 -16.53886783 12.78154007 -13.6875 13.9375 C-13.130625 14.288125 -12.57375 14.63875 -12 15 C-12 13.35 -12 11.7 -12 10 C-9.69 10.33 -7.38 10.66 -5 11 C-5 8.36 -5 5.72 -5 3 C-3.35 2.67 -1.7 2.34 0 2 C0 3.32 0 4.64 0 6 C0.66 6.33 1.32 6.66 2 7 C2 7.66 2 8.32 2 9 C1.34 9 0.68 9 0 9 C0 9.66 0 10.32 0 11 C-0.99 11.33 -1.98 11.66 -3 12 C-2.01 12.33 -1.02 12.66 0 13 C-0.804375 13.474375 -1.60875 13.94875 -2.4375 14.4375 C-4.84753488 15.76900154 -4.84753488 15.76900154 -6 17 C-4.68 17.66 -3.36 18.32 -2 19 C-2 18.34 -2 17.68 -2 17 C-0.5459375 16.814375 -0.5459375 16.814375 0.9375 16.625 C1.948125 16.41875 2.95875 16.2125 4 16 C4.33 15.34 4.66 14.68 5 14 C5.66 14 6.32 14 7 14 C7.1174875 17.33303003 7.18767324 20.66551837 7.25 24 C7.28351563 24.93457031 7.31703125 25.86914062 7.3515625 26.83203125 C7.44879079 33.7838543 6.34823056 39.20042528 1.65795898 44.52294922 C-4.0853229 49.80375531 -11.01441945 50.32133197 -18.42578125 50.40625 C-19.60722969 50.42335022 -19.60722969 50.42335022 -20.81254578 50.4407959 C-22.47059853 50.45958554 -24.12872412 50.47271967 -25.78686523 50.48046875 C-28.29611147 50.49987326 -30.80206818 50.56199887 -33.31054688 50.625 C-48.41730579 50.830915 -48.41730579 50.830915 -55.16381836 45.79101562 C-59.35548718 41.7024526 -60.8499738 38.5519308 -61.19726562 32.64453125 C-61.17101823 28.74780303 -60.98998268 24.88924313 -60.75 21 C-60.68159828 19.63942177 -60.6151753 18.27874255 -60.55078125 16.91796875 C-60.38657894 13.61046514 -60.20244609 10.30534629 -60 7 C-59.23042969 7.19207031 -58.46085937 7.38414062 -57.66796875 7.58203125 C-54.91195991 8.27466472 -54.91195991 8.27466472 -52.3125 6.6875 C-49.9565815 5.05949942 -49.9565815 5.05949942 -48 3 C-47.34 3.66 -46.68 4.32 -46 5 C-44.68252676 5.69748583 -43.35085807 6.36959957 -42 7 C-41.34 5.35 -40.68 3.7 -40 2 Z M-45 4 C-43 5 -43 5 -43 5 Z " fill="#15B54F" transform="translate(447,701)"/>
<path d="M0 0 C0.33 0 0.66 0 1 0 C1.29671382 6.3850109 1.54355509 12.77059783 1.75683594 19.15893555 C1.83504699 21.32896893 1.92440346 23.49863184 2.02539062 25.66772461 C2.16913181 28.79768895 2.27187639 31.92682464 2.3671875 35.05859375 C2.42002899 36.01833603 2.47287048 36.97807831 2.52731323 37.96690369 C2.68467393 45.04004642 0.873946 49.791057 -4 55 C-11.65923476 60.1833597 -20.80700169 59.58268146 -29.69580078 59.46655273 C-32.12731782 59.43747228 -34.55666278 59.44600072 -36.98828125 59.45898438 C-38.5573021 59.45274833 -40.12631618 59.44435843 -41.6953125 59.43359375 C-42.41010773 59.43652939 -43.12490295 59.43946503 -43.86135864 59.44248962 C-51.12091293 59.30862422 -57.74933455 57.25066545 -63 52 C-66.48316437 46.63847998 -66.3268566 42.15918157 -66.07421875 36.0078125 C-66.04777786 35.06187225 -66.02133698 34.11593201 -65.99409485 33.1413269 C-65.90668283 30.13521704 -65.79741124 27.13036296 -65.6875 24.125 C-65.62420474 22.08077344 -65.56233994 20.03650205 -65.50195312 17.9921875 C-65.35119823 12.99412073 -65.18084194 7.99706495 -65 3 C-64.01 3 -63.02 3 -62 3 C-61.9175 4.27875 -61.835 5.5575 -61.75 6.875 C-61.53343841 9.06590853 -61.53343841 9.06590853 -61 11 C-59.0998823 12.24174796 -59.0998823 12.24174796 -57 13 C-55.8125 15.5 -55.8125 15.5 -55 18 C-54.67 18.66 -54.34 19.32 -54 20 C-54.66 20 -55.32 20 -56 20 C-55.67 20.99 -55.34 21.98 -55 23 C-54.67 22.34 -54.34 21.68 -54 21 C-52.68 21 -51.36 21 -50 21 C-49.01 19.02 -48.02 17.04 -47 15 C-46.01 15 -45.02 15 -44 15 C-44.33 15.99 -44.66 16.98 -45 18 C-44.01 17.67 -43.02 17.34 -42 17 C-42.99 19.475 -42.99 19.475 -44 22 C-41.36 21.34 -38.72 20.68 -36 20 C-36.33 22.64 -36.66 25.28 -37 28 C-36.34 27.67 -35.68 27.34 -35 27 C-32.6670134 26.95977609 -30.33293334 26.95679753 -28 27 C-28.66 27.66 -29.32 28.32 -30 29 C-27.35261084 30.4606285 -26.10551666 31 -23 31 C-22.01 31.33 -21.02 31.66 -20 32 C-20.99 34.31 -21.98 36.62 -23 39 C-22.05125 38.814375 -21.1025 38.62875 -20.125 38.4375 C-17 38 -17 38 -15 39 C-14.34 39.99 -13.68 40.98 -13 42 C-9.72226496 41.24849977 -9.72226496 41.24849977 -8 38 C-7.34 37.67 -6.68 37.34 -6 37 C-6.33 36.34 -6.66 35.68 -7 35 C-7.99 35.495 -7.99 35.495 -9 36 C-11.07202216 31.61218837 -11.07202216 31.61218837 -10.75 28.875 C-10 27 -10 27 -8 24 C-8.99 24.33 -9.98 24.66 -11 25 C-9.69928991 20.09732352 -8.04197852 15.64086028 -6 11 C-6 10.67 -6 10.34 -6 10 C-4.02 10 -2.04 10 0 10 C0 6.7 0 3.4 0 0 Z " fill="#13B14E" transform="translate(784,692)"/>
<path d="M0 0 C1.98 0.66 3.96 1.32 6 2 C6.33 3.98 6.66 5.96 7 8 C8.99983534 7.20882096 8.99983534 7.20882096 11 6 C11.33 5.01 11.66 4.02 12 3 C12.66 3.33 13.32 3.66 14 4 C13.8125 6.375 13.8125 6.375 13 9 C10.4375 10.3125 10.4375 10.3125 8 11 C8.33 12.32 8.66 13.64 9 15 C9.53625 14.773125 10.0725 14.54625 10.625 14.3125 C14.06081901 13.86041855 16.05766694 15.32821985 19 17 C18.67 18.65 18.34 20.3 18 22 C18.99 21.67 19.98 21.34 21 21 C21 23.31 21 25.62 21 28 C21.66 27.67 22.32 27.34 23 27 C23.66 27.33 24.32 27.66 25 28 C25 28.99 25 29.98 25 31 C24.34 31 23.68 31 23 31 C23 31.66 23 32.32 23 33 C25.41619823 33.25030977 25.41619823 33.25030977 28 33 C28.66 32.01 29.32 31.02 30 30 C29.01 29.67 28.02 29.34 27 29 C27 28.34 27 27.68 27 27 C27.66 27 28.32 27 29 27 C29.33 26.01 29.66 25.02 30 24 C32.95784231 22.77606525 34.99727245 23.03483757 38 24 C38.33 23.34 38.66 22.68 39 22 C38.34 21.67 37.68 21.34 37 21 C37.6875 19.0625 37.6875 19.0625 39 17 C41.43031519 16.27090544 43.47161625 16 46 16 C46 16.99 46 17.98 46 19 C46.99 18.34 47.98 17.68 49 17 C51.98514628 21.10457614 52.2954439 23.97745369 52 29 C52.66 28.34 53.32 27.68 54 27 C54.66 26.34 55.32 25.68 56 25 C56.350625 25.825 56.70125 26.65 57.0625 27.5 C57.701875 28.325 58.34125 29.15 59 30 C62.62599422 30.41725678 62.62599422 30.41725678 66 30 C67 33 67 33 65.9375 35.375 C62.50296754 40.02823752 58.53575169 43.29807754 53 45 C50.08672894 45.30337869 47.18907629 45.3278155 44.26171875 45.3359375 C43.42212112 45.3425943 42.5825235 45.3492511 41.71748352 45.35610962 C39.94489727 45.36621029 38.1722732 45.37092744 36.3996582 45.37060547 C33.7065462 45.37496914 31.01508702 45.41128822 28.32226562 45.44921875 C26.59375556 45.45508962 24.86523777 45.4590572 23.13671875 45.4609375 C21.94256599 45.48249405 21.94256599 45.48249405 20.72428894 45.50448608 C14.1303751 45.4513833 9.02833448 43.51690797 3.94140625 39.2890625 C3.48636719 38.73992188 3.03132812 38.19078125 2.5625 37.625 C1.85287109 36.80902344 1.85287109 36.80902344 1.12890625 35.9765625 C-1.43402154 31.48922181 -1.08613731 26.30865938 -0.87890625 21.2890625 C-0.80639648 19.42314453 -0.80639648 19.42314453 -0.73242188 17.51953125 C-0.67634766 16.23433594 -0.62027344 14.94914063 -0.5625 13.625 C-0.51029297 12.31660156 -0.45808594 11.00820313 -0.40429688 9.66015625 C-0.27501407 6.43983922 -0.1400631 3.2198632 0 0 Z M19 16 C21 17 21 17 21 17 Z " fill="#12AF4C" transform="translate(608,706)"/>
<path d="M0 0 C2 0.25 2 0.25 4 1 C4.33 1.99 4.66 2.98 5 4 C6.32 3.01 7.64 2.02 9 1 C9 1.66 9 2.32 9 3 C9.66 3 10.32 3 11 3 C11.33 2.34 11.66 1.68 12 1 C12 1.66 12 2.32 12 3 C12.94875 3.12375 13.8975 3.2475 14.875 3.375 C18 4 18 4 20 6 C20.34490322 10.05261287 20.30163882 11.54754176 18 15 C18 16.32 18 17.64 18 19 C18.99 17.68 19.98 16.36 21 15 C21.33 15.99 21.66 16.98 22 18 C22.66 18.33 23.32 18.66 24 19 C23.34 19.66 22.68 20.32 22 21 C23.65 20.67 25.3 20.34 27 20 C26.505 17.525 26.505 17.525 26 15 C26.78375 15.020625 27.5675 15.04125 28.375 15.0625 C30.98114961 15.18684063 30.98114961 15.18684063 33 14 C38 19.5 38 19.5 38 24 C37.34 24 36.68 24 36 24 C36 24.99 36 25.98 36 27 C34 27 34 27 31.875 25 C30.946875 24.01 30.946875 24.01 30 23 C29.67 23.66 29.34 24.32 29 25 C29 24.34 29 23.68 29 23 C27.68 23 26.36 23 25 23 C26.65 24.98 28.3 26.96 30 29 C29.34 29.99 28.68 30.98 28 32 C27.34 32 26.68 32 26 32 C25.855625 32.804375 25.71125 33.60875 25.5625 34.4375 C25 37 25 37 24 38 C23.731875 38.804375 23.46375 39.60875 23.1875 40.4375 C22 43 22 43 19.875 44.3125 C19.25625 44.539375 18.6375 44.76625 18 45 C17.505 44.505 17.505 44.505 17 44 C16.34 44.99 15.68 45.98 15 47 C14.01 46.34 13.02 45.68 12 45 C8.36060068 45.31730524 8.36060068 45.31730524 5 46 C5.309375 46.61875 5.61875 47.2375 5.9375 47.875 C6.625 49.25 7.3125 50.625 8 52 C3.67302005 50.88734801 1.53809539 48.76991861 -0.96368408 45.1161499 C-2.86525228 41.23316086 -2.51909813 37.39725452 -2.3046875 33.1640625 C-2.27778839 32.24410492 -2.25088928 31.32414734 -2.22317505 30.37631226 C-2.13136182 27.45779277 -2.00310893 24.54212707 -1.875 21.625 C-1.81022783 19.642 -1.74770434 17.65892519 -1.6875 15.67578125 C-1.20065492 1.20065492 -1.20065492 1.20065492 0 0 Z " fill="#15B550" transform="translate(499,696)"/>
<path d="M0 0 C1.32 0.33 2.64 0.66 4 1 C4.33 2.32 4.66 3.64 5 5 C5.66 4.01 6.32 3.02 7 2 C10 3 10 3 11 5 C10.67 5.33 10.34 5.66 10 6 C11.32 6.99 12.64 7.98 14 9 C13.67 10.32 13.34 11.64 13 13 C12.34 13 11.68 13 11 13 C10.34 13.99 9.68 14.98 9 16 C10.32 16 11.64 16 13 16 C13.66 16.33 14.32 16.66 15 17 C15.495 15.515 15.495 15.515 16 14 C16.680625 15.175625 16.680625 15.175625 17.375 16.375 C18.88428742 19.03698031 18.88428742 19.03698031 21 21 C21 21.99 21 22.98 21 24 C21.98189187 25.67739862 22.98133771 27.34467377 24 29 C24 29.66 24 30.32 24 31 C24.99 31 25.98 31 27 31 C26.505 28.03 26.505 28.03 26 25 C27.65 25 29.3 25 31 25 C31 25.66 31 26.32 31 27 C31.99 26.67 32.98 26.34 34 26 C34.73323796 23.98491642 34.73323796 23.98491642 35 22 C35.99 22.33 36.98 22.66 38 23 C40.69433317 21.12802546 40.69433317 21.12802546 43 19 C43.91361119 21.46564948 44.19903424 22.55693247 43.1015625 25 C42.61429687 25.66 42.12703125 26.32 41.625 27 C41.16351563 27.66 40.70203125 28.32 40.2265625 29 C32.20367148 36.20652667 22.71990562 35.62233617 12.52514648 35.52148438 C9.93964145 35.50001778 7.35690542 35.52136178 4.77148438 35.546875 C3.10676478 35.54423194 1.4420469 35.5391074 -0.22265625 35.53125 C-0.98433609 35.53934692 -1.74601593 35.54744385 -2.53077698 35.55578613 C-8.08103504 35.46007028 -12.34695237 34.06685077 -17 31 C-18.91015625 28.78125 -18.91015625 28.78125 -20.0625 26.5 C-20.46597656 25.7471875 -20.86945313 24.994375 -21.28515625 24.21875 C-22.09937428 21.6915596 -21.89015507 20.4633222 -21 18 C-20.34 18.66 -19.68 19.32 -19 20 C-18.34 19.67 -17.68 19.34 -17 19 C-17.33 20.32 -17.66 21.64 -18 23 C-17.01 23.66 -16.02 24.32 -15 25 C-15 25.99 -15 26.98 -15 28 C-14.34 28 -13.68 28 -13 28 C-12.896875 27.443125 -12.79375 26.88625 -12.6875 26.3125 C-11.86866423 23.55823422 -10.54146219 21.41272343 -9 19 C-8.67 19.66 -8.34 20.32 -8 21 C-6.35 20.34 -4.7 19.68 -3 19 C-3.495 16.525 -3.495 16.525 -4 14 C-3.01 13.67 -2.02 13.34 -1 13 C-0.22887899 10.99528611 -0.22887899 10.99528611 0.125 8.625 C0.61930837 5.96267247 1.13999007 3.5800298 2 1 C1.34 0.67 0.68 0.34 0 0 Z " fill="#12AF4C" transform="translate(299,716)"/>
<path d="M0 0 C2.02045442 0.60183749 4.02111039 1.27306096 6 2 C6.33 2.66 6.66 3.32 7 4 C9.01669827 5.13350534 9.01669827 5.13350534 11 6 C9.53474371 9.97712421 7.98224884 12.01775116 5 15 C4.690625 15.78375 4.38125 16.5675 4.0625 17.375 C2.69672899 20.74925779 1.31422364 23.34288818 -2 25 C-2.33 25.66 -2.66 26.32 -3 27 C-4.32 26.67 -5.64 26.34 -7 26 C-7.33 26.99 -7.66 27.98 -8 29 C-8.9075 28.62875 -9.815 28.2575 -10.75 27.875 C-13.87447709 26.67863398 -13.87447709 26.67863398 -16.25 27.9375 C-16.8275 28.288125 -17.405 28.63875 -18 29 C-18.66 28.67 -19.32 28.34 -20 28 C-20 20.41 -20 12.82 -20 5 C-17.525 5.495 -17.525 5.495 -15 6 C-12.16286436 4.61442213 -10.22998296 3.22998296 -8 1 C-7.34 1.66 -6.68 2.32 -6 3 C-4.68252676 3.69748583 -3.35085807 4.36959957 -2 5 C-1.34 3.35 -0.68 1.7 0 0 Z M-5 2 C-3 3 -3 3 -3 3 Z " fill="#19C156" transform="translate(407,703)"/>
<path d="M0 0 C0.680625 0.7425 0.680625 0.7425 1.375 1.5 C2.87635519 3.22609337 2.87635519 3.22609337 5 3 C5 3.99 5 4.98 5 6 C5.99 6.66 6.98 7.32 8 8 C6.64585476 13.11565979 3.3971878 16.26877771 -1 19 C-6.26954228 20.80597978 -10.85578685 21.29597787 -16.34765625 21.265625 C-17.12257919 21.26753845 -17.89750214 21.2694519 -18.69590759 21.27142334 C-20.32372363 21.27277636 -21.95155078 21.26914204 -23.5793457 21.26074219 C-26.05900449 21.25001512 -28.53794134 21.26067484 -31.01757812 21.2734375 C-32.60677242 21.27211603 -34.19596626 21.2695539 -35.78515625 21.265625 C-36.51968521 21.26967346 -37.25421417 21.27372192 -38.01100159 21.27789307 C-42.36092063 21.2385878 -46.02600412 20.82542709 -50 19 C-50.33 18.01 -50.66 17.02 -51 16 C-51.66 15.34 -52.32 14.68 -53 14 C-52.67 13.01 -52.34 12.02 -52 11 C-45.25 9.875 -45.25 9.875 -43 11 C-43.309375 11.5775 -43.61875 12.155 -43.9375 12.75 C-44.92871384 14.84904107 -45.47548801 16.75074138 -46 19 C-43.8535247 18.88655624 -41.70779408 18.75893655 -39.5625 18.625 C-37.77005859 18.52058594 -37.77005859 18.52058594 -35.94140625 18.4140625 C-34.97074219 18.27742187 -34.00007812 18.14078125 -33 18 C-32.67 17.34 -32.34 16.68 -32 16 C-29.75025725 13.23108584 -27.52353617 10.52353617 -25 8 C-25.33 7.34 -25.66 6.68 -26 6 C-24.02 5.34 -22.04 4.68 -20 4 C-19.505 5.98 -19.505 5.98 -19 8 C-18.34 8 -17.68 8 -17 8 C-17.33 9.32 -17.66 10.64 -18 12 C-17.01 12.33 -16.02 12.66 -15 13 C-14.505 13.495 -14.505 13.495 -14 14 C-13.731875 12.865625 -13.46375 11.73125 -13.1875 10.5625 C-12.795625 9.386875 -12.40375 8.21125 -12 7 C-11.01 6.67 -10.02 6.34 -9 6 C-8.34 5.34 -7.68 4.68 -7 4 C-6.01 4 -5.02 4 -4 4 C-3.67 3.01 -3.34 2.02 -3 1 C-2.01 1.33 -1.02 1.66 0 2 C0 1.34 0 0.68 0 0 Z " fill="#10A547" transform="translate(556,730)"/>
<path d="M0 0 C2.125 0.375 2.125 0.375 4 1 C3.67 2.65 3.34 4.3 3 6 C4.32 6 5.64 6 7 6 C7.495 8.475 7.495 8.475 8 11 C9.32 11.33 10.64 11.66 12 12 C10.71034824 13.37562854 9.37310707 14.70766393 8 16 C7.34 16 6.68 16 6 16 C6 16.66 6 17.32 6 18 C-0.38445784 19.76473501 -7.19570796 19.30379798 -13.78027344 19.35009766 C-15.50664746 19.36666617 -17.23295264 19.39396834 -18.95898438 19.43212891 C-21.45999382 19.4870594 -23.95940515 19.50879142 -26.4609375 19.5234375 C-27.2267514 19.54610687 -27.99256531 19.56877625 -28.78158569 19.59213257 C-34.51144652 19.56968244 -36.95708925 18.04451159 -41 14 C-40 12 -40 12 -36.75 10.875 C-29.59090909 9.20454545 -29.59090909 9.20454545 -26 11 C-26 11.99 -26 12.98 -26 14 C-23.50447516 13.21869929 -23.50447516 13.21869929 -21 12 C-20.67 11.01 -20.34 10.02 -20 9 C-17.03 9.495 -17.03 9.495 -14 10 C-13.87625 9.360625 -13.7525 8.72125 -13.625 8.0625 C-13.315625 7.0415625 -13.315625 7.0415625 -13 6 C-12.34 5.67 -11.68 5.34 -11 5 C-11 4.34 -11 3.68 -11 3 C-7.56905354 0.83977445 -5.86122038 1.1871115 -2 2 C-1.34 1.34 -0.68 0.68 0 0 Z " fill="#11A748" transform="translate(435,732)"/>
<path d="M0 0 C2 0.25 2 0.25 4 1 C4.33 1.99 4.66 2.98 5 4 C6.32 3.01 7.64 2.02 9 1 C9 1.66 9 2.32 9 3 C9.66 3 10.32 3 11 3 C11.33 2.34 11.66 1.68 12 1 C12 1.66 12 2.32 12 3 C12.94875 3.12375 13.8975 3.2475 14.875 3.375 C18 4 18 4 20 6 C20.34490322 10.05261287 20.30163882 11.54754176 18 15 C15.66537059 18.63164576 15.83667782 21.75362327 16 26 C14 25 14 25 13 22 C9.20411134 22.54226981 7.52788007 24.20127563 5 27 C5.33 27.66 5.66 28.32 6 29 C5.01 29 4.02 29 3 29 C2.67 29.66 2.34 30.32 2 31 C1.01 31 0.02 31 -1 31 C-1.02465622 26.74585377 -1.04283899 22.49174502 -1.05493164 18.23754883 C-1.05997101 16.78929927 -1.06680253 15.34105483 -1.07543945 13.89282227 C-1.08752247 11.81525412 -1.09323211 9.73775303 -1.09765625 7.66015625 C-1.10289307 6.40855713 -1.10812988 5.15695801 -1.11352539 3.86743164 C-1 1 -1 1 0 0 Z " fill="#19C257" transform="translate(499,696)"/>
<path d="M0 0 C2.8125 -0.25 2.8125 -0.25 6 0 C7.875 2 7.875 2 9 4 C9.66 3.34 10.32 2.68 11 2 C11.02505615 2.62567871 11.0501123 3.25135742 11.07592773 3.89599609 C11.19175273 6.72254619 11.31453985 9.54875169 11.4375 12.375 C11.47681641 13.35984375 11.51613281 14.3446875 11.55664062 15.359375 C11.59853516 16.30039062 11.64042969 17.24140625 11.68359375 18.2109375 C11.72025146 19.08024902 11.75690918 19.94956055 11.79467773 20.84521484 C11.87401544 23.0483262 11.87401544 23.0483262 13 25 C13.12005453 26.49649362 13.17531451 27.99874793 13.1875 29.5 C13.20167969 30.2940625 13.21585938 31.088125 13.23046875 31.90625 C13 34 13 34 11 36 C10.01 35.01 9.02 34.02 8 33 C8.33 32.34 8.66 31.68 9 31 C8.01 31.33 7.02 31.66 6 32 C5.67 31.01 5.34 30.02 5 29 C2.99983534 27.79117904 2.99983534 27.79117904 1 27 C1 26.34 1 25.68 1 25 C-0.65 25 -2.3 25 -4 25 C-4 24.01 -4 23.02 -4 22 C-3.34 22 -2.68 22 -2 22 C-3.9254644 19.7763932 -3.9254644 19.7763932 -7 19 C-6.34 19 -5.68 19 -5 19 C-5 18.01 -5 17.02 -5 16 C-6.98 16.99 -6.98 16.99 -9 18 C-8.67 16.35 -8.34 14.7 -8 13 C-7.34 13 -6.68 13 -6 13 C-5.34 11.35 -4.68 9.7 -4 8 C-3.34 8 -2.68 8 -2 8 C-1.34 5.36 -0.68 2.72 0 0 Z " fill="#17BC54" transform="translate(552,702)"/>
<path d="M0 0 C1.98 0.66 3.96 1.32 6 2 C6.33 3.98 6.66 5.96 7 8 C8.99983534 7.20882096 8.99983534 7.20882096 11 6 C11.33 5.01 11.66 4.02 12 3 C12.66 3.33 13.32 3.66 14 4 C13.8125 6.375 13.8125 6.375 13 9 C10.4375 10.3125 10.4375 10.3125 8 11 C8.33 12.32 8.66 13.64 9 15 C9.53625 14.773125 10.0725 14.54625 10.625 14.3125 C14.06081901 13.86041855 16.05766694 15.32821985 19 17 C18.67 18.65 18.34 20.3 18 22 C18.99 21.67 19.98 21.34 21 21 C20.4140625 27.15234375 20.4140625 27.15234375 20 29 C19.34 29.33 18.68 29.66 18 30 C18 29.01 18 28.02 18 27 C17.34 27 16.68 27 16 27 C15.67 27.66 15.34 28.32 15 29 C13.35 29 11.7 29 10 29 C10.99 27.02 11.98 25.04 13 23 C7.93664172 26.43693106 7.93664172 26.43693106 5.3125 31.6875 C5.209375 32.450625 5.10625 33.21375 5 34 C4.34 34 3.68 34 3 34 C3.66 35.65 4.32 37.3 5 39 C0.87909473 35.40741592 -0.44628915 33.39878254 -1 28 C-1.01495113 25.76270665 -0.97119502 23.52450158 -0.87890625 21.2890625 C-0.80639648 19.42314453 -0.80639648 19.42314453 -0.73242188 17.51953125 C-0.67634766 16.23433594 -0.62027344 14.94914063 -0.5625 13.625 C-0.51029297 12.31660156 -0.45808594 11.00820313 -0.40429688 9.66015625 C-0.27501407 6.43983922 -0.1400631 3.2198632 0 0 Z M19 16 C21 17 21 17 21 17 Z " fill="#16BA52" transform="translate(608,706)"/>
<path d="M0 0 C0.79141891 -0.0066568 1.58283783 -0.0133136 2.39823914 -0.02017212 C4.06649466 -0.03025693 5.73479019 -0.03499044 7.40307617 -0.03466797 C9.93151687 -0.03903195 12.45819666 -0.07536789 14.98632812 -0.11328125 C32.83127161 -0.23927775 32.83127161 -0.23927775 39.23168945 5.85449219 C43.2122268 10.40565391 43.76136425 13.06451075 43.75697327 18.99234009 C43.75782769 19.68416929 43.75868212 20.37599849 43.75956243 21.0887922 C43.76121584 23.41810747 43.75569814 25.74735148 43.75024414 28.07666016 C43.74996221 29.7419586 43.75012011 31.40725717 43.75068665 33.07255554 C43.7509744 37.60329517 43.74508118 42.1340085 43.73811269 46.66474199 C43.73187554 51.39598998 43.73127506 56.12723852 43.73008728 60.85848999 C43.72697503 69.82221054 43.71876307 78.78591895 43.70873779 87.74963415 C43.69757335 97.95262864 43.69206537 108.15562371 43.68704236 118.35862279 C43.67658038 139.35106782 43.65898299 160.34350189 43.63671875 181.3359375 C43.30671875 181.3359375 42.97671875 181.3359375 42.63671875 181.3359375 C42.30671875 127.5459375 41.97671875 73.7559375 41.63671875 18.3359375 C39.56218315 18.1868663 39.56218315 18.1868663 37.63671875 19.3359375 C38.51171875 14.5859375 38.51171875 14.5859375 39.63671875 12.3359375 C39.63671875 11.0159375 39.63671875 9.6959375 39.63671875 8.3359375 C38.97671875 8.3359375 38.31671875 8.3359375 37.63671875 8.3359375 C37.63671875 7.6759375 37.63671875 7.0159375 37.63671875 6.3359375 C36.64671875 6.3359375 35.65671875 6.3359375 34.63671875 6.3359375 C34.63671875 5.6759375 34.63671875 5.0159375 34.63671875 4.3359375 C33.68796875 4.3565625 32.73921875 4.3771875 31.76171875 4.3984375 C28.63671875 4.3359375 28.63671875 4.3359375 26.63671875 3.3359375 C24.70545909 3.693414 24.70545909 3.693414 22.63671875 4.3359375 C18.85894097 5.44704861 18.85894097 5.44704861 16.63671875 4.3359375 C13.46356189 4.27710725 10.30705167 4.31497567 7.13476562 4.375 C4.00869653 4.41174126 1.62865745 4.3332504 -1.36328125 3.3359375 C-6.77174495 2.83413207 -6.77174495 2.83413207 -11.61328125 4.7109375 C-12.19078125 5.2471875 -12.76828125 5.7834375 -13.36328125 6.3359375 C-14.06453125 6.6453125 -14.76578125 6.9546875 -15.48828125 7.2734375 C-17.81945779 8.59443754 -18.38476301 9.88964189 -19.36328125 12.3359375 C-20.35328125 12.3359375 -21.34328125 12.3359375 -22.36328125 12.3359375 C-22.69328125 12.9959375 -23.02328125 13.6559375 -23.36328125 14.3359375 C-22.86741729 10.16061922 -21.87253493 8.35806681 -18.67578125 5.6484375 C-18.01191406 5.06707031 -17.34804688 4.48570312 -16.6640625 3.88671875 C-11.45869139 0.3781749 -6.11997271 0.01815808 0 0 Z " fill="#29EA73" transform="translate(631.36328125,527.6640625)"/>
<path d="M0 0 C0.99 0 1.98 0 3 0 C3.0825 1.27875 3.165 2.5575 3.25 3.875 C3.46656159 6.06590853 3.46656159 6.06590853 4 8 C5.9001177 9.24174796 5.9001177 9.24174796 8 10 C9.1875 12.5 9.1875 12.5 10 15 C10.33 15.66 10.66 16.32 11 17 C10.34 17 9.68 17 9 17 C9.33 17.99 9.66 18.98 10 20 C10.33 19.34 10.66 18.68 11 18 C12.32 18 13.64 18 15 18 C15.99 16.02 16.98 14.04 18 12 C18.99 12 19.98 12 21 12 C20.67 12.99 20.34 13.98 20 15 C20.99 14.67 21.98 14.34 23 14 C22.34 15.65 21.68 17.3 21 19 C21.66 19.33 22.32 19.66 23 20 C20.06171403 22.50298434 17.82097239 23.46930939 14 24 C14 25.65 14 27.3 14 29 C13.34 29 12.68 29 12 29 C12 28.01 12 27.02 12 26 C11.01 26 10.02 26 9 26 C9 26.66 9 27.32 9 28 C9.66 28.33 10.32 28.66 11 29 C10.731875 29.515625 10.46375 30.03125 10.1875 30.5625 C8.67650593 33.66401415 7.34427274 36.82262806 6 40 C5.01 40 4.02 40 3 40 C3.33 38.35 3.66 36.7 4 35 C2.68 34.34 1.36 33.68 0 33 C0 22.11 0 11.22 0 0 Z " fill="#19C056" transform="translate(719,695)"/>
<path d="M0 0 C1.32 0.99 2.64 1.98 4 3 C4.33 2.34 4.66 1.68 5 1 C5 1.66 5 2.32 5 3 C5.66 3.33 6.32 3.66 7 4 C6 7 6 7 4 10 C9.56717533 7.64543677 9.56717533 7.64543677 15 5 C15.33 5.66 15.66 6.32 16 7 C16.33 6.34 16.66 5.68 17 5 C17.66 5.33 18.32 5.66 19 6 C18.6875 7.9375 18.6875 7.9375 18 10 C17.01 10.33 16.02 10.66 15 11 C16.98 11.99 18.96 12.98 21 14 C21 14.66 21 15.32 21 16 C21.66 16.33 22.32 16.66 23 17 C18.55260587 17.07449251 14.1055481 17.12876257 9.65771484 17.16479492 C8.14658273 17.17982543 6.63549382 17.20025564 5.12451172 17.22631836 C2.94487813 17.26295689 0.76582425 17.27978338 -1.4140625 17.29296875 C-2.7232666 17.3086792 -4.0324707 17.32438965 -5.38134766 17.34057617 C-9.24866211 16.9765967 -11.67336493 15.95141584 -15 14 C-14.67 13.34 -14.34 12.68 -14 12 C-13.34 12 -12.68 12 -12 12 C-12.33 11.01 -12.66 10.02 -13 9 C-12.34 9 -11.68 9 -11 9 C-11 9.66 -11 10.32 -11 11 C-8.83333333 10.16666667 -8.83333333 10.16666667 -8 8 C-7.34 8.33 -6.68 8.66 -6 9 C-3.24813059 7.31337036 -2.14792089 6.56478886 -1.3125 3.375 C-1.209375 2.59125 -1.10625 1.8075 -1 1 C-0.67 0.67 -0.34 0.34 0 0 Z " fill="#11A548" transform="translate(741,732)"/>
<path d="M0 0 C0.33 0 0.66 0 1 0 C1.04666305 25.25990826 1.08196085 50.51981009 1.10362434 75.77975273 C1.11394918 87.50764275 1.12803251 99.23550604 1.15087891 110.96337891 C1.1707759 121.18206268 1.18370764 131.4007271 1.18817699 141.61942971 C1.19079064 147.03315445 1.19695879 152.44682381 1.21146011 157.86053085 C1.22498578 162.9510095 1.22923286 168.04140969 1.22621536 173.1319046 C1.22676778 175.00486044 1.23077497 176.87781877 1.23841095 178.75075912 C1.24829384 181.29877095 1.24599345 183.84648262 1.24050903 186.39450073 C1.24633472 187.14351902 1.2521604 187.89253731 1.25816262 188.66425312 C1.22824242 193.77175758 1.22824242 193.77175758 -1 196 C-1 193.36 -1 190.72 -1 188 C-3.475 189.98 -3.475 189.98 -6 192 C-6.33 190.35 -6.66 188.7 -7 187 C-6.01 187 -5.02 187 -4 187 C-2.93648325 183.61608307 -2.78557018 182.4195366 -4.4375 179.1875 C-4.953125 178.465625 -5.46875 177.74375 -6 177 C-5.01 176.67 -4.02 176.34 -3 176 C-2.67 174.02 -2.34 172.04 -2 170 C-2.99 169.67 -3.98 169.34 -5 169 C-4.01 165.04 -3.02 161.08 -2 157 C-1.67 157 -1.34 157 -1 157 C-0.67 105.19 -0.34 53.38 0 0 Z " fill="#20CB5F" transform="translate(675,542)"/>
<path d="M0 0 C0.33 0 0.66 0 1 0 C1.219303 6.45899423 1.41412937 12.91839615 1.59204102 19.37866211 C1.65542697 21.57577168 1.72439274 23.77272772 1.79907227 25.96948242 C1.90551388 29.12915539 1.99180463 32.288839 2.07421875 35.44921875 C2.11157639 36.42960617 2.14893402 37.40999359 2.18742371 38.42008972 C2.29837252 43.46454947 2.33405609 46.89625324 -1 51 C-2.33332095 48.3333581 -1.67102033 46.83319697 -1 44 C-1.99 43.34 -2.98 42.68 -4 42 C-4 41.34 -4 40.68 -4 40 C-3.34 40 -2.68 40 -2 40 C-2.6786476 36.9211575 -2.6786476 36.9211575 -4.9375 35.75 C-5.618125 35.5025 -6.29875 35.255 -7 35 C-7.99 35.495 -7.99 35.495 -9 36 C-11.07202216 31.61218837 -11.07202216 31.61218837 -10.75 28.875 C-10 27 -10 27 -8 24 C-8.99 24.33 -9.98 24.66 -11 25 C-9.69928991 20.09732352 -8.04197852 15.64086028 -6 11 C-6 10.67 -6 10.34 -6 10 C-4.02 10 -2.04 10 0 10 C0 6.7 0 3.4 0 0 Z " fill="#18BE55" transform="translate(784,692)"/>
<path d="M0 0 C0.66 0.66 1.32 1.32 2 2 C1.34 2 0.68 2 0 2 C0 1.34 0 0.68 0 0 Z M-3 2 C-2.01 2.33 -1.02 2.66 0 3 C0 3.99 0 4.98 0 6 C0.66 6.33 1.32 6.66 2 7 C2 7.66 2 8.32 2 9 C1.34 9 0.68 9 0 9 C0 9.66 0 10.32 0 11 C-0.99 11.33 -1.98 11.66 -3 12 C-2.01 12.33 -1.02 12.66 0 13 C-0.804375 13.474375 -1.60875 13.94875 -2.4375 14.4375 C-4.84753488 15.76900154 -4.84753488 15.76900154 -6 17 C-4.68 17.66 -3.36 18.32 -2 19 C-2 18.34 -2 17.68 -2 17 C-0.5459375 16.814375 -0.5459375 16.814375 0.9375 16.625 C1.948125 16.41875 2.95875 16.2125 4 16 C4.33 15.34 4.66 14.68 5 14 C5.66 14 6.32 14 7 14 C7.08767555 17.37483413 7.14061628 20.74937215 7.1875 24.125 C7.21263672 25.07632813 7.23777344 26.02765625 7.26367188 27.0078125 C7.32056144 32.46921074 7.04470749 36.2531332 4 41 C2.39968656 37.79937313 3.96826309 35.27728194 5 32 C3.35 32 1.7 32 0 32 C0.33 30.68 0.66 29.36 1 28 C0.4225 27.855625 -0.155 27.71125 -0.75 27.5625 C-2.21598135 27.19600466 -3.67530377 26.80138125 -5.125 26.375 C-7.08039699 25.7843899 -7.08039699 25.7843899 -9 27 C-9.50559908 25.56445975 -10.0042749 24.1264798 -10.5 22.6875 C-10.91765625 21.48673828 -10.91765625 21.48673828 -11.34375 20.26171875 C-12.31929067 16.89958752 -12 13.48378941 -12 10 C-9.69 10.33 -7.38 10.66 -5 11 C-5 8.36 -5 5.72 -5 3 C-4.34 2.67 -3.68 2.34 -3 2 Z M2 26 C3 28 3 28 3 28 Z " fill="#19C157" transform="translate(447,701)"/>
<path d="M0 0 C1.24813477 -0.0049926 1.24813477 -0.0049926 2.52148438 -0.01008606 C4.2799423 -0.01514633 6.03840981 -0.01749466 7.796875 -0.01733398 C10.48974348 -0.01952291 13.18220387 -0.0376946 15.875 -0.05664062 C17.58333193 -0.05957422 19.29166581 -0.06155924 21 -0.0625 C22.20946289 -0.07327827 22.20946289 -0.07327827 23.44335938 -0.08427429 C27.32111442 -0.06838569 29.19827443 -0.03318163 32.5 2.16796875 C31.35934082 2.1930249 30.21868164 2.21808105 29.04345703 2.24389648 C24.82035659 2.33791168 20.59742291 2.43814662 16.37451172 2.5402832 C14.54512425 2.5836544 12.71569573 2.62532786 10.88623047 2.6652832 C8.25996514 2.72293293 5.6339069 2.7866424 3.0078125 2.8515625 C1.77649094 2.87663124 1.77649094 2.87663124 0.52029419 2.90220642 C-3.6233696 2.91110745 -3.6233696 2.91110745 -7.5 4.16796875 C-7.83 5.15796875 -8.16 6.14796875 -8.5 7.16796875 C-9.49 6.50796875 -10.48 5.84796875 -11.5 5.16796875 C-11.5 5.82796875 -11.5 6.48796875 -11.5 7.16796875 C-14.5 9.16796875 -14.5 9.16796875 -16.5 10.16796875 C-16.83 10.82796875 -17.16 11.48796875 -17.5 12.16796875 C-18.49 12.16796875 -19.48 12.16796875 -20.5 12.16796875 C-20.83 48.46796875 -21.16 84.76796875 -21.5 122.16796875 C-21.83 122.16796875 -22.16 122.16796875 -22.5 122.16796875 C-22.59360589 108.22475017 -22.66379227 94.2815806 -22.70724869 80.33811188 C-22.72810747 73.86331775 -22.75639465 67.38873499 -22.80175781 60.9140625 C-22.84527539 54.66356839 -22.86914996 48.41327737 -22.87950897 42.16264343 C-22.88688963 39.78005273 -22.90130233 37.39747293 -22.92292023 35.01496887 C-22.9520318 31.67314793 -22.95595262 28.33216209 -22.95410156 24.99023438 C-22.96848267 24.00911682 -22.98286377 23.02799927 -22.99768066 22.01715088 C-22.95631306 15.09785026 -21.67109963 9.37998579 -16.68359375 4.328125 C-16.10738281 3.96589844 -15.53117187 3.60367188 -14.9375 3.23046875 C-14.06931641 2.66005859 -14.06931641 2.66005859 -13.18359375 2.078125 C-8.91366277 -0.23021356 -4.7113108 0.0065023 0 0 Z " fill="#29EE78" transform="translate(408.5,613.83203125)"/>
<path d="M0 0 C1.32 0.33 2.64 0.66 4 1 C4.33 2.32 4.66 3.64 5 5 C5.66 4.01 6.32 3.02 7 2 C10 3 10 3 11 5 C10.67 5.33 10.34 5.66 10 6 C11.32 6.99 12.64 7.98 14 9 C13.67 10.32 13.34 11.64 13 13 C12.34 13 11.68 13 11 13 C10.01 14.485 10.01 14.485 9 16 C9.33 16.66 9.66 17.32 10 18 C8.68 19.32 7.36 20.64 6 22 C5.34 21.67 4.68 21.34 4 21 C2.68 22.32 1.36 23.64 0 25 C-2.51083114 23.74458443 -2.87125446 22.49936512 -4 20 C-3.67 19.67 -3.34 19.34 -3 19 C-3.28604898 17.32457024 -3.61781233 15.65614657 -4 14 C-3.01 13.67 -2.02 13.34 -1 13 C-0.22887899 10.99528611 -0.22887899 10.99528611 0.125 8.625 C0.61930837 5.96267247 1.13999007 3.5800298 2 1 C1.34 0.67 0.68 0.34 0 0 Z " fill="#17BD54" transform="translate(299,716)"/>
<path d="M0 0 C4.69112115 1.34032033 7.51248648 3.87903866 10 8 C11.70085416 13.5601268 12.28775403 18.51808079 12.24291992 24.30517578 C12.24481827 25.09340225 12.24671661 25.88162872 12.24867249 26.69374084 C12.2523509 29.27770211 12.24171129 31.86137654 12.23046875 34.4453125 C12.22927432 36.26121996 12.22882434 38.07712805 12.2290802 39.89303589 C12.22751994 43.69402962 12.21927015 47.49492856 12.20581055 51.29589844 C12.18889457 56.1303216 12.18499458 60.96464014 12.18575573 65.79908943 C12.18548154 69.55010956 12.17995953 73.30110753 12.17275429 77.05212021 C12.16960548 78.83242501 12.16760924 80.61273228 12.16686058 82.3930397 C12.15783312 92.64590524 11.91164008 102.78040295 11 113 C10.67 113 10.34 113 10 113 C9.98786972 111.14624252 9.98786972 111.14624252 9.97549438 109.2550354 C9.89813627 97.62981017 9.81042348 86.00470346 9.71247292 74.37963295 C9.6624465 68.40252648 9.61611716 62.42543823 9.578125 56.44824219 C9.54135221 50.68399316 9.4950144 44.91989432 9.44193649 39.15577316 C9.42334985 36.9524943 9.40825783 34.74918319 9.39665604 32.54585648 C9.37986646 29.46872704 9.35084948 26.39194483 9.31884766 23.31494141 C9.31668747 22.39640884 9.31452728 21.47787628 9.31230164 20.5315094 C9.30113815 19.69575882 9.28997467 18.86000824 9.2784729 17.99893188 C9.27294214 17.27071543 9.26741138 16.54249897 9.26171303 15.79221535 C9.14533902 13.74699734 9.14533902 13.74699734 7 12 C7.66 12 8.32 12 9 12 C9 11.34 9 10.68 9 10 C8.34 10 7.68 10 7 10 C6.7525 9.21625 6.505 8.4325 6.25 7.625 C4.80505715 4.59062001 3.94434181 4.32970275 1 3 C0.67 2.01 0.34 1.02 0 0 Z " fill="#23D967" transform="translate(442,616)"/>
<path d="M0 0 C0.88257477 -0.00524185 1.76514954 -0.0104837 2.67446899 -0.0158844 C4.53524731 -0.02228642 6.3960662 -0.02099125 8.25683594 -0.01245117 C11.08602936 -0.00395291 13.91319378 -0.03270815 16.7421875 -0.06445312 C18.55729107 -0.06606579 20.37239817 -0.06548635 22.1875 -0.0625 C23.02421234 -0.07373398 23.86092468 -0.08496796 24.72299194 -0.09654236 C31.15647486 -0.02118506 36.71113023 1.42409595 41.37802124 6.08180237 C44.03840274 9.24179183 45.01708309 11.73163773 45.0390625 15.87109375 C44.9359375 17.04671875 44.8328125 18.22234375 44.7265625 19.43359375 C44.3965625 19.43359375 44.0665625 19.43359375 43.7265625 19.43359375 C43.7265625 17.45359375 43.7265625 15.47359375 43.7265625 13.43359375 C42.4065625 13.10359375 41.0865625 12.77359375 39.7265625 12.43359375 C39.7265625 11.11359375 39.7265625 9.79359375 39.7265625 8.43359375 C37.588014 6.29504525 36.59380936 6.00704312 33.7265625 5.43359375 C33.3965625 6.75359375 33.0665625 8.07359375 32.7265625 9.43359375 C32.0665625 9.43359375 31.4065625 9.43359375 30.7265625 9.43359375 C30.2315625 6.46359375 30.2315625 6.46359375 29.7265625 3.43359375 C27.16377551 3.37938674 24.60214767 3.33982368 22.0390625 3.30859375 C21.31783203 3.29183594 20.59660156 3.27507813 19.85351562 3.2578125 C15.60425241 3.21900644 12.60175304 3.79040341 8.7265625 5.43359375 C6.80180096 4.97687067 4.8775652 4.5121021 2.9765625 3.96484375 C-1.09537418 3.00341426 -5.13371548 2.8229315 -9.2734375 3.43359375 C-12.36035327 5.22877098 -12.36035327 5.22877098 -14.2734375 7.43359375 C-14.9334375 7.10359375 -15.5934375 6.77359375 -16.2734375 6.43359375 C-18.03806433 9.5216907 -18.2734375 10.66671511 -18.2734375 14.43359375 C-19.2634375 14.43359375 -20.2534375 14.43359375 -21.2734375 14.43359375 C-20.86058565 9.75460609 -18.76621326 6.47006864 -15.2734375 3.43359375 C-10.09413289 0.22678483 -5.90426991 -0.02061562 0 0 Z " fill="#2AE974" transform="translate(519.2734375,586.56640625)"/>
<path d="M0 0 C2.05519054 5.31931669 2.05519054 5.31931669 1.8125 8.3125 C1.544375 8.869375 1.27625 9.42625 1 10 C-2.9476427 11.3158809 -6.71089356 11.12300273 -10.82421875 11.09765625 C-11.68561966 11.0962413 -12.54702057 11.09482635 -13.43452454 11.09336853 C-16.18555169 11.0877714 -18.93649744 11.07521946 -21.6875 11.0625 C-23.5527332 11.05748463 -25.41796767 11.05292179 -27.28320312 11.04882812 C-31.85550011 11.03780292 -36.42773625 11.02054027 -41 11 C-41 10.67 -41 10.34 -41 10 C-39.74703125 9.98582031 -38.4940625 9.97164062 -37.203125 9.95703125 C-35.55204672 9.91012562 -33.90100618 9.86187825 -32.25 9.8125 C-31.425 9.80669922 -30.6 9.80089844 -29.75 9.79492188 C-24.55449119 9.65693832 -24.55449119 9.65693832 -20.5390625 6.5 C-20.03117188 5.675 -19.52328125 4.85 -19 4 C-15.79232433 2.61000721 -12.45682795 2.92143573 -9 3 C-9 2.34 -9 1.68 -9 1 C-5.92677456 0.08941469 -3.19902639 -0.08886184 0 0 Z " fill="#0F9D44" transform="translate(663,740)"/>
<path d="M0 0 C0.86179367 -0.0066568 1.72358734 -0.0133136 2.61149597 -0.02017212 C4.43116124 -0.03027423 6.25086336 -0.0349899 8.07055664 -0.03466797 C10.83607991 -0.0390319 13.5999941 -0.07535064 16.36523438 -0.11328125 C18.1393175 -0.11915202 19.91340815 -0.12311967 21.6875 -0.125 C22.91446342 -0.14655655 22.91446342 -0.14655655 24.16621399 -0.16854858 C30.52535842 -0.11864411 35.93448035 1.38665431 40.6431427 5.85415649 C44.04296875 9.75662418 44.04296875 9.75662418 44.04296875 12.3359375 C43.05296875 12.0059375 42.06296875 11.6759375 41.04296875 11.3359375 C41.04296875 10.3459375 41.04296875 9.3559375 41.04296875 8.3359375 C38.73296875 8.3359375 36.42296875 8.3359375 34.04296875 8.3359375 C33.54796875 6.8509375 33.54796875 6.8509375 33.04296875 5.3359375 C33.37296875 5.0059375 33.70296875 4.6759375 34.04296875 4.3359375 C31.64577443 3.65635147 31.64577443 3.65635147 29.04296875 3.3359375 C28.38296875 3.9959375 27.72296875 4.6559375 27.04296875 5.3359375 C27.04296875 4.3459375 27.04296875 3.3559375 27.04296875 2.3359375 C15.82296875 2.3359375 4.60296875 2.3359375 -6.95703125 2.3359375 C-7.28703125 3.3259375 -7.61703125 4.3159375 -7.95703125 5.3359375 C-8.61703125 4.6759375 -9.27703125 4.0159375 -9.95703125 3.3359375 C-10.94703125 3.6659375 -11.93703125 3.9959375 -12.95703125 4.3359375 C-12.95703125 4.9959375 -12.95703125 5.6559375 -12.95703125 6.3359375 C-14.60703125 6.6659375 -16.25703125 6.9959375 -17.95703125 7.3359375 C-17.95703125 8.3259375 -17.95703125 9.3159375 -17.95703125 10.3359375 C-18.94703125 10.6659375 -19.93703125 10.9959375 -20.95703125 11.3359375 C-19.60055723 6.89656799 -17.78894186 4.9202493 -13.95703125 2.3359375 C-9.35809714 -0.04688024 -5.06040911 0.0136675 0 0 Z " fill="#2BEF79" transform="translate(740.95703125,467.6640625)"/>
<path d="M0 0 C0.66 0.33 1.32 0.66 2 1 C0.03198508 4.73922835 -1.29746267 6.14873134 -5 8 C-5.80528889 10.05000871 -5.80528889 10.05000871 -6 12 C-6.66 12 -7.32 12 -8 12 C-8 12.66 -8 13.32 -8 14 C-7.34 14 -6.68 14 -6 14 C-6.33 14.99 -6.66 15.98 -7 17 C-7.66 17 -8.32 17 -9 17 C-9 30.2 -9 43.4 -9 57 C-9.33 57 -9.66 57 -10 57 C-11.11676713 52.4960043 -11.17810458 48.05766627 -11.203125 43.4453125 C-11.20882507 42.62553925 -11.21452515 41.80576599 -11.22039795 40.96115112 C-11.22981745 39.23143798 -11.23636977 37.50170713 -11.24023438 35.77197266 C-11.24994234 33.14062924 -11.28099499 30.51006675 -11.3125 27.87890625 C-11.3190309 26.19271294 -11.32428103 24.50651408 -11.328125 22.8203125 C-11.3404718 22.04092316 -11.3528186 21.26153381 -11.36553955 20.45852661 C-11.33572634 13.06635185 -9.16983177 7.48315491 -4 2 C-1.875 0.625 -1.875 0.625 0 0 Z " fill="#24E46D" transform="translate(286,661)"/>
<path d="M0 0 C2.38564077 0.57584432 4.66682784 1.22227595 7 2 C8 5 8 5 8 9 C9.32 9.66 10.64 10.32 12 11 C12 11.66 12 12.32 12 13 C10.63875 12.690625 10.63875 12.690625 9.25 12.375 C5.87963154 11.98611133 4.71838625 12.08706153 2 14 C1.67 14.66 1.34 15.32 1 16 C0.01 16.33 -0.98 16.66 -2 17 C-2.34274406 15.33524314 -2.67364302 13.66804677 -3 12 C-3.3403125 10.4840625 -3.3403125 10.4840625 -3.6875 8.9375 C-4.02157276 5.79721609 -3.69787432 4.59674896 -2 2 C-1.34 2 -0.68 2 0 2 C0 1.34 0 0.68 0 0 Z " fill="#19C357" transform="translate(324,713)"/>
<path d="M0 0 C0.99 0.33 1.98 0.66 3 1 C2.53851563 1.55945313 2.07703125 2.11890625 1.6015625 2.6953125 C-4.26392678 9.9054594 -9.65672582 17.40116336 -15 25 C-14.67 25.66 -14.34 26.32 -14 27 C-14.99 27.33 -15.98 27.66 -17 28 C-18.54546697 30.11388601 -18.54546697 30.11388601 -19.9375 32.6875 C-20.45699219 33.58597656 -20.97648437 34.48445312 -21.51171875 35.41015625 C-22.00285156 36.26480469 -22.49398438 37.11945312 -23 38 C-24.26378561 40.08994967 -25.54867006 42.03033794 -27 44 C-27.66 44 -28.32 44 -29 44 C-29.33 44.99 -29.66 45.98 -30 47 C-30.66 46.34 -31.32 45.68 -32 45 C-31.50371094 44.33355469 -31.00742187 43.66710937 -30.49609375 42.98046875 C-27.09416084 38.36494308 -23.77954597 33.74471463 -20.75 28.875 C-17.61301094 23.86593682 -14.27677955 19.0186074 -10.875 14.1875 C-10.12041504 13.11121338 -10.12041504 13.11121338 -9.35058594 12.01318359 C-6.40027011 7.84603243 -3.32301588 3.87685186 0 0 Z " fill="#072E1A" transform="translate(350,523)"/>
<path d="M0 0 C0.65942383 1.7434082 0.65942383 1.7434082 1 4 C0.00268555 5.99682617 0.00268555 5.99682617 -1.55078125 8.10546875 C-3.87095634 11.37892006 -6.05607583 14.66273939 -8.10546875 18.11328125 C-8.61400391 18.96857422 -9.12253906 19.82386719 -9.64648438 20.70507812 C-10.15501953 21.56552734 -10.66355469 22.42597656 -11.1875 23.3125 C-12.22054495 25.05984369 -13.25562903 26.8059838 -14.29296875 28.55078125 C-14.7418042 29.31044189 -15.19063965 30.07010254 -15.65307617 30.8527832 C-17.0071319 33.01136942 -18.35387184 35.05296966 -20 37 C-20.66 37 -21.32 37 -22 37 C-21.625 34.0625 -21.625 34.0625 -21 31 C-20.34 30.67 -19.68 30.34 -19 30 C-17.47615729 26.70849974 -16.14689643 23.44068928 -15 20 C-13.39192964 18.18218133 -12.1785148 17.0892574 -10 16 C-9.40929986 14.05396726 -9.40929986 14.05396726 -9 12 C-8.67 11.34 -8.34 10.68 -8 10 C-7.34 10 -6.68 10 -6 10 C-5.855625 9.38125 -5.71125 8.7625 -5.5625 8.125 C-5 6 -5 6 -4 4 C-3.34 4 -2.68 4 -2 4 C-1.34 2.68 -0.68 1.36 0 0 Z " fill="#21DB66" transform="translate(571,453)"/>
<path d="M0 0 C0.33 0 0.66 0 1 0 C1 12.54 1 25.08 1 38 C0.01 37.01 -0.98 36.02 -2 35 C-1.505 34.505 -1.505 34.505 -1 34 C-0.76807135 32.48530552 -0.58784762 30.96245438 -0.4375 29.4375 C-0.35371094 28.61121094 -0.26992188 27.78492188 -0.18359375 26.93359375 C-0.12300781 26.29550781 -0.06242188 25.65742187 0 25 C-0.763125 25.33 -1.52625 25.66 -2.3125 26 C-5 27 -5 27 -8 27 C-7.67 25.68 -7.34 24.36 -7 23 C-5.68 23.66 -4.36 24.32 -3 25 C-3 24.01 -3 23.02 -3 22 C-3.99 22 -4.98 22 -6 22 C-6.33 21.34 -6.66 20.68 -7 20 C-7.66 19.67 -8.32 19.34 -9 19 C-7.33333333 17.33333333 -5.66666667 15.66666667 -4 14 C-3.01 14 -2.02 14 -1 14 C-0.67 9.38 -0.34 4.76 0 0 Z " fill="#1FCF5F" transform="translate(784,653)"/>
<path d="M0 0 C5.03372844 1.43820813 6.98955889 3.90245515 10 8 C11.17990032 11.53970097 11.13218895 14.72727479 11.11352539 18.40893555 C11.11367142 19.16039856 11.11381744 19.91186157 11.1139679 20.68609619 C11.11327129 23.16966642 11.10549067 25.65316163 11.09765625 28.13671875 C11.09579118 29.85878966 11.09436769 31.58086111 11.09336853 33.30293274 C11.0895504 37.83539291 11.07972611 42.36782104 11.06866455 46.90026855 C11.05843531 51.52530484 11.05386766 56.15034629 11.04882812 60.77539062 C11.03810323 69.8502745 11.02103523 78.92513458 11 88 C10.67 88 10.34 88 10 88 C9.99191315 87.07736359 9.98382629 86.15472717 9.97549438 85.20413208 C9.89765237 76.52210775 9.81039352 67.84024068 9.71247292 59.15841866 C9.66246165 54.69467419 9.61613224 50.23095394 9.578125 45.76708984 C9.54133294 41.46167719 9.49498999 37.15646491 9.44193649 32.85122299 C9.42336009 31.20617044 9.40826421 29.56107489 9.39665604 27.9159584 C9.37984872 25.61710201 9.35082821 23.31870776 9.31884766 21.02001953 C9.30552399 19.7098587 9.29220032 18.39969788 9.2784729 17.04983521 C9.31805723 13.89147004 9.31805723 13.89147004 7 12 C7.66 12 8.32 12 9 12 C9 11.34 9 10.68 9 10 C8.34 10 7.68 10 7 10 C6.7525 9.21625 6.505 8.4325 6.25 7.625 C4.80505715 4.59062001 3.94434181 4.32970275 1 3 C0.67 2.01 0.34 1.02 0 0 Z " fill="#29EF77" transform="translate(442,616)"/>
<path d="M0 0 C0.66 0.33 1.32 0.66 2 1 C2 1.99 2 2.98 2 4 C1.01 4.495 1.01 4.495 0 5 C-0.28875 5.598125 -0.5775 6.19625 -0.875 6.8125 C-2.21782749 9.42355346 -3.89454123 10.95469719 -6 13 C-6.7425 13.928125 -7.485 14.85625 -8.25 15.8125 C-11.96930676 20.34035171 -16.37730514 25.12576838 -22 27 C-22.28875 27.639375 -22.5775 28.27875 -22.875 28.9375 C-24.39098648 31.71680854 -26.05867273 32.07115981 -29 33 C-29 32.01 -29 31.02 -29 30 C-27.453125 28.59765625 -27.453125 28.59765625 -25.25 27.0625 C-15.15959331 19.51455799 -6.99496099 10.45129465 0 0 Z " fill="#072E19" transform="translate(736,417)"/>
<path d="M0 0 C0.66 0 1.32 0 2 0 C2.94442384 4.77715897 3.1481901 9.41644045 3.14526367 14.26855469 C3.15030159 15.47936958 3.15030159 15.47936958 3.15544128 16.71464539 C3.16489572 19.36707113 3.16689102 22.01943348 3.16796875 24.671875 C3.17118306 26.5193891 3.17454727 28.36690294 3.17805481 30.2144165 C3.18403075 34.07768342 3.18589608 37.94092801 3.18530273 41.80419922 C3.18520072 46.76320527 3.1989005 51.72206941 3.21607494 56.68104172 C3.22716584 60.4916246 3.22922291 64.30217271 3.22869301 68.11277008 C3.2298757 69.94207502 3.23431354 71.77138079 3.24202538 73.60066986 C3.25177491 76.15022433 3.24896834 78.69946438 3.24291992 81.24902344 C3.24853943 82.00851791 3.25415894 82.76801239 3.25994873 83.55052185 C3.22832193 88.77167807 3.22832193 88.77167807 1 91 C1 61.96 1 32.92 1 3 C0.34 2.67 -0.32 2.34 -1 2 C-0.67 1.34 -0.34 0.68 0 0 Z " fill="#062D1A" transform="translate(787,480)"/>
<path d="M0 0 C2.0625 0.4375 2.0625 0.4375 4 1 C3.67 1.99 3.34 2.98 3 4 C4.32 4.66 5.64 5.32 7 6 C5 8 3 10 1 12 C-2.625 11.625 -2.625 11.625 -6 11 C-6 7.7 -6 4.4 -6 1 C-4.35 1 -2.7 1 -1 1 C-0.67 0.67 -0.34 0.34 0 0 Z " fill="#19C256" transform="translate(283,719)"/>
<path d="M0 0 C2.25627895 0.00313942 4.51121895 -0.02023815 6.76733398 -0.0456543 C14.34518106 -0.07913861 21.07861376 0.10864307 28.09350586 3.31567383 C28.58850586 4.30567383 28.58850586 4.30567383 29.09350586 5.31567383 C27.44350586 5.31567383 25.79350586 5.31567383 24.09350586 5.31567383 C23.59850586 3.83067383 23.59850586 3.83067383 23.09350586 2.31567383 C9.56350586 2.31567383 -3.96649414 2.31567383 -17.90649414 2.31567383 C-12.1156972 -0.57972464 -6.34378536 -0.01847107 0 0 Z " fill="#26E16F" transform="translate(306.906494140625,658.684326171875)"/>
<path d="M0 0 C0.66 0.66 1.32 1.32 2 2 C0.700625 2.86625 0.700625 2.86625 -0.625 3.75 C-1.17285156 4.11996094 -1.72070312 4.48992187 -2.28515625 4.87109375 C-3.84715427 5.89937946 -5.45315043 6.8600278 -7.0625 7.8125 C-10.15685908 10.11680995 -11.86270045 12.30627037 -13.921875 15.51171875 C-15 17 -15 17 -17 18 C-17.33 18.99 -17.66 19.98 -18 21 C-18.66 21 -19.32 21 -20 21 C-20 22.32 -20 23.64 -20 25 C-21.98 25.99 -21.98 25.99 -24 27 C-24 19.60846537 -16.1294227 12.41618091 -11.390625 7.2421875 C-7.96897334 4.03299134 -4.26000656 1.91347813 0 0 Z " fill="#08381D" transform="translate(591,439)"/>
<path d="M0 0 C0.66 0.66 1.32 1.32 2 2 C1.7246156 4.66204919 0.86382788 6.2178754 -0.5625 8.5 C-2.33231408 11.0973012 -2.33231408 11.0973012 -2 15 C-2.99 15.66 -3.98 16.32 -5 17 C-7.30304271 20.27740694 -8.43417868 23.03925073 -9 27 C-9.99 27 -10.98 27 -12 27 C-11.49363995 21.95941583 -9.7330835 18.31115216 -7.125 14.0625 C-4.35445786 9.48044954 -2.01726473 4.96703863 0 0 Z " fill="#062516" transform="translate(770,360)"/>
<path d="M0 0 C0.33 0.66 0.66 1.32 1 2 C0.14535156 2.26554687 -0.70929688 2.53109375 -1.58984375 2.8046875 C-2.69457031 3.15789062 -3.79929687 3.51109375 -4.9375 3.875 C-6.03964844 4.22304688 -7.14179688 4.57109375 -8.27734375 4.9296875 C-11.12878804 5.70024295 -11.12878804 5.70024295 -12 8 C-13.97888961 8.72693904 -15.97954558 9.39816251 -18 10 C-18 10.66 -18 11.32 -18 12 C-19.96147874 13.38938077 -21.96166576 14.7260411 -24 16 C-24 13 -24 13 -22.12890625 10.87890625 C-8.81562039 -1.13749941 -8.81562039 -1.13749941 0 0 Z " fill="#08381D" transform="translate(377,506)"/>
<path d="M0 0 C0.99 0.33 1.98 0.66 3 1 C2.34 2.65 1.68 4.3 1 6 C0.34 6 -0.32 6 -1 6 C-1.14308594 6.79664063 -1.14308594 6.79664063 -1.2890625 7.609375 C-2.2300182 10.77346778 -3.73617689 13.3872457 -5.375 16.25 C-5.98085938 17.32765625 -6.58671875 18.4053125 -7.2109375 19.515625 C-8.09652344 20.74539063 -8.09652344 20.74539063 -9 22 C-9.99 22 -10.98 22 -12 22 C-8 14.66666667 -4 7.33333333 0 0 Z " fill="#07331B" transform="translate(557,479)"/>
<path d="M0 0 C0 4.62 0 9.24 0 14 C-0.66 14 -1.32 14 -2 14 C-2 13.34 -2 12.68 -2 12 C-3.65 12 -5.3 12 -7 12 C-6.67558396 10.33157466 -6.34060811 8.66519519 -6 7 C-5.896875 6.29875 -5.79375 5.5975 -5.6875 4.875 C-4.8236877 2.51914828 -2.74680008 0 0 0 Z " fill="#1FCD5E" transform="translate(563,675)"/>
<path d="M0 0 C0 3 0 3 -1.64453125 4.82421875 C-2.71767578 5.74654297 -2.71767578 5.74654297 -3.8125 6.6875 C-4.52019531 7.31011719 -5.22789062 7.93273437 -5.95703125 8.57421875 C-8 10 -8 10 -11 10 C-10.55090939 8.51800098 -10.09043436 7.03944764 -9.625 5.5625 C-9.36976563 4.73878906 -9.11453125 3.91507813 -8.8515625 3.06640625 C-7.1735883 -1.00537518 -3.90033836 -0.08478996 0 0 Z " fill="#23D766" transform="translate(290,604)"/>
<path d="M0 0 C0.99 0.33 1.98 0.66 3 1 C2.33411865 1.62044189 2.33411865 1.62044189 1.65478516 2.25341797 C-0.35549152 4.12690534 -2.36525143 6.00094614 -4.375 7.875 C-5.07367188 8.52597656 -5.77234375 9.17695312 -6.4921875 9.84765625 C-7.1625 10.47285156 -7.8328125 11.09804688 -8.5234375 11.7421875 C-9.14138184 12.3182373 -9.75932617 12.89428711 -10.39599609 13.48779297 C-11.61654142 14.63848669 -12.81386617 15.81386617 -14 17 C-15.31747324 17.69748583 -16.64914193 18.36959957 -18 19 C-17.49673407 14.88067514 -15.44008981 13.26412567 -12.375 10.625 C-11.47394531 9.84640625 -10.57289063 9.0678125 -9.64453125 8.265625 C-8.77183594 7.51796875 -7.89914062 6.7703125 -7 6 C-6.30261719 5.35546875 -5.60523438 4.7109375 -4.88671875 4.046875 C-3.32753416 2.61790069 -1.67127736 1.29609265 0 0 Z " fill="#062616" transform="translate(289,607)"/>
<path d="M0 0 C1.32 0.99 2.64 1.98 4 3 C4.33 2.34 4.66 1.68 5 1 C5.66 1.33 6.32 1.66 7 2 C7 2.66 7 3.32 7 4 C6.01 4 5.02 4 4 4 C4 4.66 4 5.32 4 6 C-1.94 6.495 -1.94 6.495 -8 7 C-8 6.34 -8 5.68 -8 5 C-8.66 4.34 -9.32 3.68 -10 3 C-8.72125 2.87625 -7.4425 2.7525 -6.125 2.625 C-2.65209064 2.30957601 -2.65209064 2.30957601 0 0 Z " fill="#0FA046" transform="translate(627,743)"/>
<path d="M0 0 C6.6 0 13.2 0 20 0 C19.67 0.99 19.34 1.98 19 3 C12.73 3 6.46 3 0 3 C0 2.01 0 1.02 0 0 Z " fill="#062F1A" transform="translate(653,464)"/>
<path d="M0 0 C0.66 0.99 1.32 1.98 2 3 C0.71053695 4.79325326 -0.58164352 6.58455278 -1.875 8.375 C-2.95394531 9.87160156 -2.95394531 9.87160156 -4.0546875 11.3984375 C-6 14 -6 14 -8 16 C-8.66 16 -9.32 16 -10 16 C-9.67 14.02 -9.34 12.04 -9 10 C-8.34 10 -7.68 10 -7 10 C-6.773125 9.46375 -6.54625 8.9275 -6.3125 8.375 C-4.56617944 5.21499137 -2.3597151 2.7323017 0 0 Z " fill="#20D664" transform="translate(325,554)"/>
<path d="M0 0 C1.33333333 0.66666667 2.66666667 1.33333333 4 2 C3.34 4.31 2.68 6.62 2 9 C-0.31 9.33 -2.62 9.66 -5 10 C-5 6.11817249 -4.00478008 4.08207086 -1.375 1.25 C-0.92125 0.8375 -0.4675 0.425 0 0 Z " fill="#1ECF5E" transform="translate(734,668)"/>
<path d="M0 0 C0.99 0.66 1.98 1.32 3 2 C2.34 2.66 1.68 3.32 1 4 C-0.32 4 -1.64 4 -3 4 C-3.33 4.99 -3.66 5.98 -4 7 C-5.32 7 -6.64 7 -8 7 C-9.485 7.5259375 -9.485 7.5259375 -11 8.0625 C-13.99294096 8.99779405 -15.14354338 9.09863716 -18 8 C-14.25717452 5.62393663 -10.49171347 3.82945353 -6.375 2.1875 C-4.68503906 1.49720703 -4.68503906 1.49720703 -2.9609375 0.79296875 C-1.49527344 0.40044922 -1.49527344 0.40044922 0 0 Z " fill="#08371D" transform="translate(692,457)"/>
<path d="M0 0 C0.33 0 0.66 0 1 0 C1.33 4.62 1.66 9.24 2 14 C2.99 14 3.98 14 5 14 C7.1875 15 7.1875 15 9 16 C8.195625 16.28875 7.39125 16.5775 6.5625 16.875 C3.8673532 17.73262568 3.8673532 17.73262568 3 20 C2.34 20 1.68 20 1 20 C0.67 21.32 0.34 22.64 0 24 C0 16.08 0 8.16 0 0 Z " fill="#1ECC5D" transform="translate(498,665)"/>
<path d="M0 0 C0.33 0 0.66 0 1 0 C1.06058594 0.97582031 1.12117187 1.95164062 1.18359375 2.95703125 C1.26738281 4.22933594 1.35117187 5.50164063 1.4375 6.8125 C1.51871094 8.07707031 1.59992187 9.34164062 1.68359375 10.64453125 C1.87184547 13.99181893 1.87184547 13.99181893 3 17 C3 20 3 20 2.5 21.9375 C1.84293332 24.29419326 1.84293332 24.29419326 2 28 C1.69595322 29.67225729 1.36871088 31.34080104 1 33 C0.67 33 0.34 33 0 33 C0 22.11 0 11.22 0 0 Z " fill="#1FD15F" transform="translate(719,640)"/>
<path d="M0 0 C0.66 0.66 1.32 1.32 2 2 C1.02546875 3.26457031 1.02546875 3.26457031 0.03125 4.5546875 C-0.81275117 5.66126681 -1.65648749 6.76804815 -2.5 7.875 C-2.92925781 8.43058594 -3.35851562 8.98617187 -3.80078125 9.55859375 C-6.22875185 12.45344714 -6.22875185 12.45344714 -7 16 C-7.66 16 -8.32 16 -9 16 C-9 16.66 -9 17.32 -9 18 C-9.99 18.33 -10.98 18.66 -12 19 C-12 14.78956195 -9.65275811 12.64054796 -7.125 9.5 C-3.43256236 4.84696038 -3.43256236 4.84696038 0 0 Z " fill="#062918" transform="translate(311,579)"/>
<path d="M0 0 C0.66 0.33 1.32 0.66 2 1 C1.690625 1.5775 1.38125 2.155 1.0625 2.75 C-0.08595972 4.88311855 -0.08595972 4.88311855 -0.25 6.9375 C-1.26701074 9.73427954 -3.20200774 10.97746033 -5.5 12.76171875 C-7.3491496 14.28823027 -8.67393965 16.01090947 -10 18 C-10.66 17.67 -11.32 17.34 -12 17 C-8.02889396 11.31227752 -4.04356153 5.6364797 0 0 Z " fill="#08391F" transform="translate(522,537)"/>
<path d="M0 0 C1.32 0.66 2.64 1.32 4 2 C4 3.32 4 4.64 4 6 C3.01 6.495 3.01 6.495 2 7 C2 7.99 2 8.98 2 10 C1.401875 9.67 0.80375 9.34 0.1875 9 C-2.05386471 7.79212012 -2.05386471 7.79212012 -5 8 C-5.33 7.01 -5.66 6.02 -6 5 C-4 3 -4 3 -1 2 C-0.67 1.34 -0.34 0.68 0 0 Z " fill="#19C357" transform="translate(770,700)"/>
<path d="M0 0 C0.33 0 0.66 0 1 0 C1 8.25 1 16.5 1 25 C-0.65 25.33 -2.3 25.66 -4 26 C-3.01 22.535 -3.01 22.535 -2 19 C-1.67 19 -1.34 19 -1 19 C-0.505 14.545 -0.505 14.545 0 10 C-0.66 9.67 -1.32 9.34 -2 9 C-1.34 9 -0.68 9 0 9 C0 6.03 0 3.06 0 0 Z " fill="#1ECA5D" transform="translate(673,670)"/>
<path d="M0 0 C0.99 0.33 1.98 0.66 3 1 C1.53681679 5.52256628 -0.93636353 8.41330365 -4 12 C-5.03655068 13.64418383 -6.05184571 15.30330285 -7 17 C-7.74609375 15.421875 -7.74609375 15.421875 -8 13 C-6.77369903 10.59958109 -5.54429316 8.47881286 -4.0625 6.25 C-3.67642578 5.64800781 -3.29035156 5.04601562 -2.89257812 4.42578125 C-1.93954585 2.94328661 -0.97121988 1.47064367 0 0 Z " fill="#072D1A" transform="translate(533,520)"/>
<path d="M0 0 C0.99 0.66 1.98 1.32 3 2 C1.0030739 3.56901337 -0.79381863 4.90903763 -3.125 5.9375 C-5.45617654 7.25850004 -6.02148176 8.55370439 -7 11 C-7.99 11 -8.98 11 -10 11 C-10.33 11.66 -10.66 12.32 -11 13 C-10.51696726 8.68986172 -9.3982201 6.9764837 -6.0625 4.25 C-5.35222656 3.65703125 -4.64195312 3.0640625 -3.91015625 2.453125 C-2 1 -2 1 0 0 Z " fill="#2BEC79" transform="translate(619,529)"/>
<path d="M0 0 C0 3 0 3 -1.375 4.6875 C-3 6 -3 6 -5 6 C-5 6.66 -5 7.32 -5 8 C-6.45537568 8.83848804 -7.91440373 9.67063934 -9.375 10.5 C-10.18710937 10.9640625 -10.99921875 11.428125 -11.8359375 11.90625 C-14 13 -14 13 -16 13 C-14.53269509 9.18335857 -12.64998112 7.89872837 -9.125 5.9375 C-5.90551487 4.12593897 -2.90987429 2.28052938 0 0 Z " fill="#072616" transform="translate(269,624)"/>
<path d="M0 0 C0.33 0 0.66 0 1 0 C1.13536629 2.41854446 1.23420279 4.82949783 1.3125 7.25 C1.35439453 7.93191406 1.39628906 8.61382813 1.43945312 9.31640625 C1.48828125 11.328125 1.48828125 11.328125 1 15 C-1.51953125 17.484375 -1.51953125 17.484375 -4 19 C-4.33 17.35 -4.66 15.7 -5 14 C-4.01 14 -3.02 14 -2 14 C-0.93648325 10.61608307 -0.78557018 9.4195366 -2.4375 6.1875 C-2.953125 5.465625 -3.46875 4.74375 -4 4 C-3.01 3.67 -2.02 3.34 -1 3 C-0.67 2.01 -0.34 1.02 0 0 Z " fill="#17BA54" transform="translate(673,715)"/>
<path d="M0 0 C2.25 -0.25 2.25 -0.25 5 0 C7.3125 2 7.3125 2 9 4 C8.01 4.495 8.01 4.495 7 5 C6.34786708 7.02463255 6.34786708 7.02463255 6 9 C4.68 8.34 3.36 7.68 2 7 C2.66 6.01 3.32 5.02 4 4 C2.68 3.67 1.36 3.34 0 3 C0 2.01 0 1.02 0 0 Z M-2 2 C-1.34 2.66 -0.68 3.32 0 4 C-0.99 4.495 -0.99 4.495 -2 5 C-2 4.01 -2 3.02 -2 2 Z " fill="#1BC85A" transform="translate(662,699)"/>
<path d="M0 0 C1.28132813 0.00902344 2.56265625 0.01804687 3.8828125 0.02734375 C4.87023437 0.03894531 5.85765625 0.05054688 6.875 0.0625 C7.205 0.7225 7.535 1.3825 7.875 2.0625 C-2.73937191 3.38339962 -2.73937191 3.38339962 -7.125 3.0625 C-7.785 2.4025 -8.445 1.7425 -9.125 1.0625 C-6.12186252 -0.43906874 -3.33432478 -0.03031204 0 0 Z " fill="#08331C" transform="translate(473.125,568.9375)"/>
<path d="M0 0 C0.66 0 1.32 0 2 0 C0.87548273 2.9719385 -0.22293791 5.33440687 -2 8 C-1.34 8.66 -0.68 9.32 0 10 C-0.66 10 -1.32 10 -2 10 C-2 10.66 -2 11.32 -2 12 C-3.96147874 13.38938077 -5.96166576 14.7260411 -8 16 C-7.31387652 12.12763186 -5.52450228 9.12741765 -3.5625 5.75 C-2.94503906 4.67234375 -2.32757812 3.5946875 -1.69140625 2.484375 C-1.13324219 1.66453125 -0.57507813 0.8446875 0 0 Z " fill="#30F07D" transform="translate(736,370)"/>
<path d="M0 0 C0.66 0.66 1.32 1.32 2 2 C1.67 2.66 1.34 3.32 1 4 C1.66 4.33 2.32 4.66 3 5 C2.38125 5.268125 1.7625 5.53625 1.125 5.8125 C-1.2995233 6.95556848 -1.2995233 6.95556848 -3 10 C-3.99 8.02 -4.98 6.04 -6 4 C-3.92446352 3.4465236 -2.15634036 3 0 3 C0 2.01 0 1.02 0 0 Z M-9 6 C-7.515 6.99 -7.515 6.99 -6 8 C-6.99 8.99 -7.98 9.98 -9 11 C-9 9.35 -9 7.7 -9 6 Z " fill="#16BA51" transform="translate(331,727)"/>
<path d="M0 0 C0.66 0.99 1.32 1.98 2 3 C-0.64 7.62 -3.28 12.24 -6 17 C-6.66 16.67 -7.32 16.34 -8 16 C-7.690625 15.236875 -7.38125 14.47375 -7.0625 13.6875 C-6.32106407 11.81210323 -5.63771783 9.91315348 -5 8 C-4.34 8 -3.68 8 -3 8 C-2.690625 7.05125 -2.38125 6.1025 -2.0625 5.125 C-1 2 -1 2 0 0 Z " fill="#22DF68" transform="translate(541,502)"/>
<path d="M0 0 C0.68359375 1.734375 0.68359375 1.734375 1 4 C-0.21484375 6.140625 -0.21484375 6.140625 -1.9375 8.25 C-2.50339844 8.95640625 -3.06929688 9.6628125 -3.65234375 10.390625 C-4.09707031 10.92171875 -4.54179687 11.4528125 -5 12 C-6.32 11.67 -7.64 11.34 -9 11 C-9 10.34 -9 9.68 -9 9 C-8.01 8.67 -7.02 8.34 -6 8 C-5.87625 7.401875 -5.7525 6.80375 -5.625 6.1875 C-4.71398702 2.99895456 -2.62384059 1.88378299 0 0 Z " fill="#21DA65" transform="translate(346,524)"/>
<path d="M0 0 C0.66 0.33 1.32 0.66 2 1 C-8.38209058 13.01522843 -8.38209058 13.01522843 -13 14 C-8.88380164 9.08064098 -4.59589638 4.47352044 0 0 Z " fill="#2DEF7D" transform="translate(708,411)"/>
<path d="M0 0 C0.66 0.66 1.32 1.32 2 2 C1.73441476 5.85098598 -0.56043348 8.16695501 -3 11 C-4 8 -4 8 -3.22265625 5.95703125 C-2.83980469 5.24933594 -2.45695313 4.54164063 -2.0625 3.8125 C-1.68222656 3.09707031 -1.30195312 2.38164062 -0.91015625 1.64453125 C-0.60980469 1.10183594 -0.30945313 0.55914062 0 0 Z M-4 11 C-3.34 12.32 -2.68 13.64 -2 15 C-3.98 15.99 -3.98 15.99 -6 17 C-5.34 15.02 -4.68 13.04 -4 11 Z " fill="#08301B" transform="translate(770,360)"/>
<path d="M0 0 C1.98 0 3.96 0 6 0 C4.02 0.99 4.02 0.99 2 2 C2 2.66 2 3.32 2 4 C-1.63 4 -5.26 4 -9 4 C-8.67 3.01 -8.34 2.02 -8 1 C-5.36 1.33 -2.72 1.66 0 2 C0 1.34 0 0.68 0 0 Z " fill="#22DD66" transform="translate(242,635)"/>
<path d="M0 0 C0.99 0.33 1.98 0.66 3 1 C2.34 2.98 1.68 4.96 1 7 C0.01 7 -0.98 7 -2 7 C-2.66 8.65 -3.32 10.3 -4 12 C-4.66 11.34 -5.32 10.68 -6 10 C-4.02 6.7 -2.04 3.4 0 0 Z " fill="#08341C" transform="translate(543,504)"/>
<path d="M0 0 C0.66 0.66 1.32 1.32 2 2 C1.625 5.625 1.625 5.625 1 9 C1.9590625 9.1546875 1.9590625 9.1546875 2.9375 9.3125 C3.618125 9.539375 4.29875 9.76625 5 10 C5.33 10.99 5.66 11.98 6 13 C1.125 14 1.125 14 0 14 C0 9.38 0 4.76 0 0 Z " fill="#1BC65A" transform="translate(608,691)"/>
<path d="M0 0 C0.66 0.33 1.32 0.66 2 1 C1.46968862 5.5076467 -0.25221116 8.41954788 -3 12 C-3.66 12 -4.32 12 -5 12 C-4.01 8.7 -3.02 5.4 -2 2 C-1.34 2 -0.68 2 0 2 C0 1.34 0 0.68 0 0 Z " fill="#09321C" transform="translate(732,371)"/>
<path d="M0 0 C0.66 0.33 1.32 0.66 2 1 C2 1.33 2 1.66 2 2 C2.66 1.67 3.32 1.34 4 1 C4 1.99 4 2.98 4 4 C4.66 4.33 5.32 4.66 6 5 C1.61904762 7.06878307 1.61904762 7.06878307 -1.25 6.75 C-3 6 -3 6 -4 4 C-3.01 4 -2.02 4 -1 4 C-0.67 2.68 -0.34 1.36 0 0 Z " fill="#1DCD5D" transform="translate(770,682)"/>
<path d="M0 0 C0.99 0.99 1.98 1.98 3 3 C1.8125 5 1.8125 5 0 7 C-2.6875 7.25 -2.6875 7.25 -5 7 C-4.75 4.625 -4.75 4.625 -4 2 C-1.9375 0.6875 -1.9375 0.6875 0 0 Z " fill="#1ECE5E" transform="translate(618,673)"/>
<path d="M0 0 C0.99 0.33 1.98 0.66 3 1 C-1.29245283 6.76415094 -1.29245283 6.76415094 -4.625 7.875 C-6.41467404 7.96919337 -8.2078489 8 -10 8 C-7.95609917 5.88132232 -5.86035143 4.00991116 -3.5 2.25 C-2.9121875 1.80140625 -2.324375 1.3528125 -1.71875 0.890625 C-1.1515625 0.59671875 -0.584375 0.3028125 0 0 Z " fill="#07301A" transform="translate(503,558)"/>
<path d="M0 0 C1.83166003 3.08785599 2.19090024 4.95800315 1.6875 8.5 C1.58824219 9.2528125 1.48898437 10.005625 1.38671875 10.78125 C1.01948342 12.88821634 0.54942434 14.93378882 0 17 C-0.33 17 -0.66 17 -1 17 C-1.33 11.72 -1.66 6.44 -2 1 C-1.34 0.67 -0.68 0.34 0 0 Z " fill="#28E16E" transform="translate(609,540)"/>
<path d="M0 0 C0 0.33 0 0.66 0 1 C-6.435 1.495 -6.435 1.495 -13 2 C-13 1.01 -13 0.02 -13 -1 C-7.48845808 -3.09438593 -5.01697937 -3.18149912 0 0 Z " fill="#22D964" transform="translate(474,567)"/>
<path d="M0 0 C1.32 0 2.64 0 4 0 C4 0.66 4 1.32 4 2 C8.455 2.99 8.455 2.99 13 4 C12.67 4.66 12.34 5.32 12 6 C10.37181054 5.77169299 8.7473651 5.51656424 7.125 5.25 C6.22007812 5.11078125 5.31515625 4.9715625 4.3828125 4.828125 C2 4 2 4 0.6796875 1.921875 C0.45539062 1.28765625 0.23109375 0.6534375 0 0 Z " fill="#09371E" transform="translate(648,433)"/>
<path d="M0 0 C0.33 0 0.66 0 1 0 C1 4.95 1 9.9 1 15 C0.67 14.34 0.34 13.68 0 13 C-0.99 12.67 -1.98 12.34 -3 12 C-2.01 8.04 -1.02 4.08 0 0 Z " fill="#1CC45A" transform="translate(673,699)"/>
<path d="M0 0 C5.28 0 10.56 0 16 0 C14 2 14 2 11.72265625 2.16015625 C10.40587891 2.11181641 10.40587891 2.11181641 9.0625 2.0625 C5.91186403 1.95577743 4.02998649 1.9900045 1 3 C0.67 2.01 0.34 1.02 0 0 Z " fill="#25DA67" transform="translate(291,661)"/>
<path d="M0 0 C0.66 0.33 1.32 0.66 2 1 C2 3 2 5 2 7 C1.38125 6.814375 0.7625 6.62875 0.125 6.4375 C-2.04160178 5.76313824 -2.04160178 5.76313824 -4 7 C-4.33 5.68 -4.66 4.36 -5 3 C-2.625 1.4375 -2.625 1.4375 0 0 Z " fill="#27E06A" transform="translate(628,579)"/>
<path d="M0 0 C0.66 0.33 1.32 0.66 2 1 C1.360625 1.9075 0.72125 2.815 0.0625 3.75 C-1.61428953 6.39221381 -2.53689998 7.9898499 -3 11 C-3.66 10.67 -4.32 10.34 -5 10 C-4.56802365 5.2482602 -3.67230705 3.07999946 0 0 Z " fill="#21D462" transform="translate(312,572)"/>
<path d="M0 0 C4.60428934 1.31551124 8.18320388 3.09196486 12 6 C12 6.66 12 7.32 12 8 C8.12979331 6.88194029 5.71218579 5.9704892 3 3 C2.01 2.67 1.02 2.34 0 2 C0 1.34 0 0.68 0 0 Z " fill="#082F1A" transform="translate(433,556)"/>
<path d="M0 0 C0.99 0.33 1.98 0.66 3 1 C2.4375 2.875 2.4375 2.875 1 5 C-2.625 6.25 -2.625 6.25 -6 7 C-6 6.01 -6 5.02 -6 4 C-3.1875 1.75 -3.1875 1.75 0 0 Z " fill="#09391F" transform="translate(703,450)"/>
<path d="M0 0 C1.65 0 3.3 0 5 0 C5.36666667 5.5 5.36666667 5.5 3.625 7.875 C2 9 2 9 0 9 C0.33 8.01 0.66 7.02 1 6 C1.66 6 2.32 6 3 6 C3 5.01 3 4.02 3 3 C2.01 3 1.02 3 0 3 C0 2.01 0 1.02 0 0 Z " fill="#18C055" transform="translate(638,710)"/>
<path d="M0 0 C0.66 1.32 1.32 2.64 2 4 C0.35 5.32 -1.3 6.64 -3 8 C-3.66 7.01 -4.32 6.02 -5 5 C-4 2 -4 2 -1.9375 0.8125 C-1.298125 0.544375 -0.65875 0.27625 0 0 Z " fill="#19C156" transform="translate(651,705)"/>
<path d="M0 0 C2 2 2 2 2.0625 4.9375 C2.041875 5.948125 2.02125 6.95875 2 8 C2.33 8.99 2.66 9.98 3 11 C2.5625 13.6875 2.5625 13.6875 2 16 C1.34 16 0.68 16 0 16 C0 10.72 0 5.44 0 0 Z " fill="#1DCA5C" transform="translate(387,691)"/>
<path d="M0 0 C0.99 0.33 1.98 0.66 3 1 C2.2884375 1.6496875 2.2884375 1.6496875 1.5625 2.3125 C-0.23686957 4.02309613 -0.23686957 4.02309613 -1 7 C-1.66 7 -2.32 7 -3 7 C-3 7.66 -3 8.32 -3 9 C-3.99 8.67 -4.98 8.34 -6 8 C-4.02 5.36 -2.04 2.72 0 0 Z " fill="#2DEC79" transform="translate(321,520)"/>
<path d="M0 0 C2.97 1.65 5.94 3.3 9 5 C8.67 5.99 8.34 6.98 8 8 C4.82461668 7.65978036 3.97723135 6.97533396 1.75 4.5625 C0 2 0 2 0 0 Z " fill="#09361D" transform="translate(608,441)"/>
<path d="M0 0 C1.485 0.99 1.485 0.99 3 2 C3.29296875 4.3828125 3.29296875 4.3828125 3.1875 7.125 C3.16042969 8.03507813 3.13335937 8.94515625 3.10546875 9.8828125 C3.07066406 10.58148437 3.03585937 11.28015625 3 12 C0.03061565 8.38405615 -0.64555385 5.69641144 -1 1 C-0.67 0.67 -0.34 0.34 0 0 Z " fill="#052F19" transform="translate(453,624)"/>
<path d="M0 0 C4.95 0 9.9 0 15 0 C11 2 11 2 7 2 C6.01 2.33 5.02 2.66 4 3 C2.68 2.01 1.36 1.02 0 0 Z " fill="#27DE6B" transform="translate(419,616)"/>
<path d="M0 0 C0.99 0.33 1.98 0.66 3 1 C2.01 2.485 2.01 2.485 1 4 C1.66 4.66 2.32 5.32 3 6 C2.67 6.99 2.34 7.98 2 9 C0.35 8.67 -1.3 8.34 -3 8 C-2.690625 7.236875 -2.38125 6.47375 -2.0625 5.6875 C-1.32106407 3.81210323 -0.63771783 1.91315348 0 0 Z " fill="#1AC458" transform="translate(628,697)"/>
<path d="M0 0 C0.99 0.66 1.98 1.32 3 2 C3.66 2.33 4.32 2.66 5 3 C4.01 4.485 4.01 4.485 3 6 C-0.625 6.1875 -0.625 6.1875 -4 6 C-3.0022242 3.00667261 -2.2477975 2.05233685 0 0 Z " fill="#1ECE5E" transform="translate(739,678)"/>
<path d="M0 0 C0.66 0.33 1.32 0.66 2 1 C2 1.66 2 2.32 2 3 C-1.36683915 5.43160605 -2.73350364 6 -7 6 C-7 5.34 -7 4.68 -7 4 C-1.7265625 0.77734375 -1.7265625 0.77734375 0 0 Z " fill="#23DA68" transform="translate(266,623)"/>
<path d="M0 0 C0.66 0 1.32 0 2 0 C0.34832443 3.5786304 -1.78286492 6.74820188 -4 10 C-4.99 9.67 -5.98 9.34 -7 9 C-5.88266271 7.49428343 -4.75589965 5.99555708 -3.625 4.5 C-2.99851562 3.6646875 -2.37203125 2.829375 -1.7265625 1.96875 C-1.15679687 1.3190625 -0.58703125 0.669375 0 0 Z " fill="#2DED7B" transform="translate(293,561)"/>
<path d="M0 0 C0.99 0.33 1.98 0.66 3 1 C0.525 5.455 0.525 5.455 -2 10 C-2.66 9.67 -3.32 9.34 -4 9 C-4 6 -4 6 -2.5625 4.5 C-2.046875 4.005 -1.53125 3.51 -1 3 C-0.67 2.01 -0.34 1.02 0 0 Z " fill="#072817" transform="translate(300,545)"/>
<path d="M0 0 C0.66 1.32 1.32 2.64 2 4 C-0.66666667 6.66666667 -3.33333333 9.33333333 -6 12 C-5.36934243 8.78147169 -4.21979305 6.49198931 -2.4375 3.75 C-1.98246094 3.04359375 -1.52742187 2.3371875 -1.05859375 1.609375 C-0.53458984 0.81273437 -0.53458984 0.81273437 0 0 Z " fill="#2EEF7C" transform="translate(515,502)"/>
<path d="M0 0 C0.66 0.33 1.32 0.66 2 1 C1.34 2.32 0.68 3.64 0 5 C-0.66 5 -1.32 5 -2 5 C-2 5.66 -2 6.32 -2 7 C-1.34 7.33 -0.68 7.66 0 8 C-1.98 8.99 -1.98 8.99 -4 10 C-3.5205537 5.78087253 -2.83374881 3.20336822 0 0 Z " fill="#2EEB78" transform="translate(538,462)"/>
<path d="M0 0 C0 0.99 0 1.98 0 3 C-1.6875 3.8125 -1.6875 3.8125 -4 4 C-6.75 1.5625 -6.75 1.5625 -9 -1 C-5.79937313 -2.60031344 -3.27728194 -1.03173691 0 0 Z " fill="#09361D" transform="translate(646,462)"/>
<path d="M0 0 C0.33 0 0.66 0 1 0 C1.34833144 4.87664009 0.41685712 7.77050005 -2 12 C-2.66 11.67 -3.32 11.34 -4 11 C-2.7874262 7.27566618 -1.49140021 3.62197194 0 0 Z " fill="#072816" transform="translate(775,349)"/>
<path d="M0 0 C1.98 0 3.96 0 6 0 C6 1.98 6 3.96 6 6 C5.34 6 4.68 6 4 6 C3.34 5.01 2.68 4.02 2 3 C1.01 3.495 1.01 3.495 0 4 C0 2.68 0 1.36 0 0 Z " fill="#1CC95B" transform="translate(778,702)"/>
<path d="M0 0 C0.99 0.99 1.98 1.98 3 3 C2.67 3.33 2.34 3.66 2 4 C1.76346477 6.52596259 1.57826308 9.03107207 1.4375 11.5625 C1.39431641 12.27341797 1.35113281 12.98433594 1.30664062 13.71679688 C1.20028223 15.47761912 1.09961154 17.2387832 1 19 C0.67 19 0.34 19 0 19 C0 12.73 0 6.46 0 0 Z " fill="#1ECF5D" transform="translate(387,671)"/>
<path d="M0 0 C3.63 0 7.26 0 11 0 C10.67 1.65 10.34 3.3 10 5 C9.01 5.495 9.01 5.495 8 6 C7.690625 5.0409375 7.690625 5.0409375 7.375 4.0625 C6.10461791 1.65074923 6.10461791 1.65074923 2.875 1.25 C1.92625 1.1675 0.9775 1.085 0 1 C0 0.67 0 0.34 0 0 Z " fill="#28DD6A" transform="translate(407,616)"/>
<path d="M0 0 C4.82029598 3.85623679 4.82029598 3.85623679 5.33203125 7.11328125 C5.3145776 9.07856214 5.16596091 11.04166127 5 13 C4.67 13 4.34 13 4 13 C4 11.02 4 9.04 4 7 C2.68 6.67 1.36 6.34 0 6 C0 4 0 2 0 0 Z " fill="#2BEC7A" transform="translate(559,593)"/>
<path d="M0 0 C0.66 0.33 1.32 0.66 2 1 C1.25 3.4375 1.25 3.4375 0 6 C-2 6.875 -2 6.875 -4 7 C-4.66 6.67 -5.32 6.34 -6 6 C-6 5.34 -6 4.68 -6 4 C-4.03852126 2.61061923 -2.03833424 1.2739589 0 0 Z " fill="#21D665" transform="translate(304,584)"/>
<path d="M0 0 C0.99 0.33 1.98 0.66 3 1 C1.125 5.75 1.125 5.75 0 8 C-0.66 8 -1.32 8 -2 8 C-2.33 7.01 -2.66 6.02 -3 5 C-1.5625 2.3125 -1.5625 2.3125 0 0 Z " fill="#08391E" transform="translate(533,520)"/>
<path d="M0 0 C1.12380503 3.37141509 0.98197462 4.64492003 0 8 C-1.5625 10.3125 -1.5625 10.3125 -3 12 C-4.21386936 8.35839192 -3.6674695 7.66834531 -2.0625 4.3125 C-1.49208984 3.10013672 -1.49208984 3.10013672 -0.91015625 1.86328125 C-0.60980469 1.24839844 -0.30945313 0.63351562 0 0 Z " fill="#09341C" transform="translate(742,352)"/>
<path d="M0 0 C4.29 0 8.58 0 13 0 C12 2 12 2 10.203125 2.68359375 C6.52996534 3.211122 3.54225625 2.00363927 0 1 C0 0.67 0 0.34 0 0 Z " fill="#2AE06D" transform="translate(520,589)"/>
<path d="M0 0 C0.33 1.32 0.66 2.64 1 4 C2.32 4.33 3.64 4.66 5 5 C5.33 6.32 5.66 7.64 6 9 C4.1875 8.9375 4.1875 8.9375 2 8 C0.25 4.4375 0.25 4.4375 -1 1 C-0.67 0.67 -0.34 0.34 0 0 Z " fill="#052C19" transform="translate(428,506)"/>
<path d="M0 0 C1 3 1 3 0.375 5.4375 C-1.26591347 8.49556601 -3.19399414 10.00625899 -6 12 C-4.68139111 7.38486888 -2.78644563 3.90102388 0 0 Z " fill="#2FEF7D" transform="translate(523,488)"/>
<path d="M0 0 C1.29905098 0.7371359 2.58901122 1.49030556 3.875 2.25 C4.59429688 2.66765625 5.31359375 3.0853125 6.0546875 3.515625 C8.20874162 5.15928076 8.99140585 6.51567335 10 9 C6.04322598 7.32598022 3.15535787 4.86850715 0 2 C0 1.34 0 0.68 0 0 Z " fill="#07331B" transform="translate(622,450)"/>
<path d="M0 0 C2.475 0.99 2.475 0.99 5 2 C5 2.66 5 3.32 5 4 C5.99 4.33 6.98 4.66 8 5 C7.67 5.66 7.34 6.32 7 7 C4.36 5.35 1.72 3.7 -1 2 C-0.67 1.34 -0.34 0.68 0 0 Z " fill="#08341C" transform="translate(639,428)"/>
<path d="M0 0 C0 2 0 2 -1.5 3.625 C-1.995 4.07875 -2.49 4.5325 -3 5 C-2.01 5.33 -1.02 5.66 0 6 C-0.66 6.66 -1.32 7.32 -2 8 C-3.32 6.68 -4.64 5.36 -6 4 C-2.25 0 -2.25 0 0 0 Z " fill="#1CC95B" transform="translate(773,692)"/>
<path d="M0 0 C1.9375 0.375 1.9375 0.375 4 1 C4.33 1.66 4.66 2.32 5 3 C4.67 3.66 4.34 4.32 4 5 C2.68 5 1.36 5 0 5 C-0.33 4.01 -0.66 3.02 -1 2 C-0.67 1.34 -0.34 0.68 0 0 Z " fill="#26DE69" transform="translate(444,649)"/>
<path d="M0 0 C0.66 0.33 1.32 0.66 2 1 C2 1.99 2 2.98 2 4 C2.66 4.33 3.32 4.66 4 5 C2.02 5.99 0.04 6.98 -2 8 C-2.33 7.01 -2.66 6.02 -3 5 C-2.34 4.67 -1.68 4.34 -1 4 C-0.34786708 1.97536745 -0.34786708 1.97536745 0 0 Z " fill="#22DC68" transform="translate(255,627)"/>
<path d="M0 0 C-0.33 0.66 -0.66 1.32 -1 2 C-4.4375 2.75 -4.4375 2.75 -8 3 C-8.66 2.34 -9.32 1.68 -10 1 C-3.375 -1.125 -3.375 -1.125 0 0 Z " fill="#08381E" transform="translate(492,567)"/>
<path d="M0 0 C2.33944736 0.28730055 4.6739143 0.61936779 7 1 C7.33 1.99 7.66 2.98 8 4 C2.46153846 4.36923077 2.46153846 4.36923077 0.125 2.5 C-0.24625 2.005 -0.6175 1.51 -1 1 C-0.67 0.67 -0.34 0.34 0 0 Z " fill="#08391E" transform="translate(447,565)"/>
<path d="M0 0 C0.66 0.33 1.32 0.66 2 1 C0.44499019 4.81684226 -2.03595495 7.19195732 -5 10 C-5 6.60406522 -4.47834052 5.93380119 -2.5 3.3125 C-2.0359375 2.68988281 -1.571875 2.06726563 -1.09375 1.42578125 C-0.7328125 0.95527344 -0.371875 0.48476563 0 0 Z " fill="#072E19" transform="translate(522,537)"/>
<path d="M0 0 C2.31 0.33 4.62 0.66 7 1 C7 1.99 7 2.98 7 4 C5.02 4 3.04 4 1 4 C0.67 2.68 0.34 1.36 0 0 Z " fill="#094021" transform="translate(379,506)"/>
<path d="M0 0 C0.66 0.33 1.32 0.66 2 1 C-1.08290155 5.22797927 -1.08290155 5.22797927 -3 7 C-5.8125 7.375 -5.8125 7.375 -8 7 C-5.42215154 4.35247996 -3.08351902 2.05567935 0 0 Z " fill="#2DEE7C" transform="translate(691,427)"/>
<path d="M0 0 C0.66 0.66 1.32 1.32 2 2 C0.35 4.31 -1.3 6.62 -3 9 C-3.66 8.34 -4.32 7.68 -5 7 C-3.35 4.69 -1.7 2.38 0 0 Z " fill="#072B19" transform="translate(748,400)"/>
<path d="M0 0 C0.66 0.33 1.32 0.66 2 1 C1.67 2.32 1.34 3.64 1 5 C0.34 5 -0.32 5 -1 5 C-1.33 5.99 -1.66 6.98 -2 8 C-2.99 8.33 -3.98 8.66 -5 9 C-5 8.34 -5 7.68 -5 7 C-4.34 7 -3.68 7 -3 7 C-3 6.01 -3 5.02 -3 4 C-2.34 3.34 -1.68 2.68 -1 2 C-0.67 1.34 -0.34 0.68 0 0 Z " fill="#2EEC77" transform="translate(766,307)"/>
<path d="M0 0 C0.66 1.32 1.32 2.64 2 4 C0.68 5.32 -0.64 6.64 -2 8 C-2.6875 6.25 -2.6875 6.25 -3 4 C-1.5625 1.75 -1.5625 1.75 0 0 Z " fill="#14BC52" transform="translate(341,735)"/>
<path d="M0 0 C0.66 0.66 1.32 1.32 2 2 C1.34 3.98 0.68 5.96 0 8 C-0.66 8 -1.32 8 -2 8 C-2.33 5.69 -2.66 3.38 -3 1 C-2.01 0.67 -1.02 0.34 0 0 Z " fill="#1ECD5D" transform="translate(726,689)"/>
<path d="M0 0 C0.66 0.33 1.32 0.66 2 1 C2.625 3.5625 2.625 3.5625 3 6 C1.68 6 0.36 6 -1 6 C-1.625 4.125 -1.625 4.125 -2 2 C-1.34 1.34 -0.68 0.68 0 0 Z " fill="#29E46D" transform="translate(627,541)"/>
<path d="M0 0 C0.33 0.66 0.66 1.32 1 2 C0.0625 4.125 0.0625 4.125 -1 6 C-1.66 6 -2.32 6 -3 6 C-3.99 6.495 -3.99 6.495 -5 7 C-4.75 4.625 -4.75 4.625 -4 2 C-1.9375 0.6875 -1.9375 0.6875 0 0 Z " fill="#29E26D" transform="translate(674,540)"/>
<path d="M0 0 C0.66 0.66 1.32 1.32 2 2 C0.35 3.98 -1.3 5.96 -3 8 C-3.66 7.67 -4.32 7.34 -5 7 C-3.70700306 4.11562221 -2.34058637 2.12780579 0 0 Z " fill="#09371F" transform="translate(498,524)"/>
<path d="M0 0 C2.475 0.495 2.475 0.495 5 1 C5 2.32 5 3.64 5 5 C4.34 5 3.68 5 3 5 C2.67 5.66 2.34 6.32 2 7 C0.5393715 4.35261084 0 3.10551666 0 0 Z " fill="#1AC357" transform="translate(749,705)"/>
<path d="M0 0 C1.32 0.66 2.64 1.32 4 2 C3.34 2.66 2.68 3.32 2 4 C1.01 5.485 1.01 5.485 0 7 C-0.66 6.34 -1.32 5.68 -2 5 C-1.67 4.34 -1.34 3.68 -1 3 C-1.66 2.67 -2.32 2.34 -3 2 C-2.01 1.34 -1.02 0.68 0 0 Z " fill="#1BC759" transform="translate(645,697)"/>
<path d="M0 0 C0.99 0.33 1.98 0.66 3 1 C-0.465 3.97 -0.465 3.97 -4 7 C-4 4 -4 4 -2 1.8125 C-1.34 1.214375 -0.68 0.61625 0 0 Z " fill="#072E1A" transform="translate(296,599)"/>
<path d="M0 0 C0.66 0 1.32 0 2 0 C1.45773019 3.79588866 -0.20127563 5.47211993 -3 8 C-3 4.40142046 -2.04169485 2.90548882 0 0 Z " fill="#082D1A" transform="translate(316,571)"/>
<path d="M0 0 C0.33 1.32 0.66 2.64 1 4 C-1.475 5.485 -1.475 5.485 -4 7 C-4 4 -4 4 -2 1.8125 C-1.34 1.214375 -0.68 0.61625 0 0 Z " fill="#08351E" transform="translate(566,467)"/>
<path d="M0 0 C0.99 0.33 1.98 0.66 3 1 C-1.75 4.875 -1.75 4.875 -4 6 C-4.66 5.34 -5.32 4.68 -6 4 C-3.1875 1.9375 -3.1875 1.9375 0 0 Z " fill="#09331C" transform="translate(687,427)"/>
<path d="M0 0 C1.65 0 3.3 0 5 0 C4.1875 2.4375 4.1875 2.4375 3 5 C2.01 5.33 1.02 5.66 0 6 C-1 3 -1 3 0 0 Z " fill="#072A18" transform="translate(783,330)"/>
<path d="M0 0 C0.33 0.66 0.66 1.32 1 2 C0.67 2.66 0.34 3.32 0 4 C-0.66 4 -1.32 4 -2 4 C-2.33 4.99 -2.66 5.98 -3 7 C-3.66 5.68 -4.32 4.36 -5 3 C-3 1 -3 1 0 0 Z " fill="#18BF54" transform="translate(747,712)"/>
<path d="M0 0 C1.32 0 2.64 0 4 0 C3.67 1.65 3.34 3.3 3 5 C2.01 4.67 1.02 4.34 0 4 C0 2.68 0 1.36 0 0 Z " fill="#1CC95B" transform="translate(623,696)"/>
<path d="M0 0 C1.98 0.495 1.98 0.495 4 1 C3.34 2.65 2.68 4.3 2 6 C1.67 5.34 1.34 4.68 1 4 C0.34 4 -0.32 4 -1 4 C-0.67 2.68 -0.34 1.36 0 0 Z " fill="#1ECF5D" transform="translate(666,677)"/>
<path d="M0 0 C1.2375 0.1546875 1.2375 0.1546875 2.5 0.3125 C3.16 1.3025 3.82 2.2925 4.5 3.3125 C1.29937313 4.91281344 -1.22271806 3.34423691 -4.5 2.3125 C-2.5 0.3125 -2.5 0.3125 0 0 Z " fill="#062516" transform="translate(330.5,657.6875)"/>
<path d="M0 0 C0 0.99 0 1.98 0 3 C-2 4.6875 -2 4.6875 -4 6 C-4.66 5.67 -5.32 5.34 -6 5 C-3.375 1.125 -3.375 1.125 0 0 Z " fill="#2DEC78" transform="translate(309,541)"/>
<path d="M0 0 C3.465 1.98 3.465 1.98 7 4 C6.67 4.66 6.34 5.32 6 6 C5.34 6 4.68 6 4 6 C4 5.34 4 4.68 4 4 C2.68 3.67 1.36 3.34 0 3 C0 2.01 0 1.02 0 0 Z " fill="#083A1E" transform="translate(387,508)"/>
<path d="M0 0 C0.66 0.66 1.32 1.32 2 2 C0.515 4.475 0.515 4.475 -1 7 C-1.99 6.67 -2.98 6.34 -4 6 C-2.68 4.02 -1.36 2.04 0 0 Z " fill="#07341C" transform="translate(511,504)"/>
<path d="M0 0 C0.66 0.66 1.32 1.32 2 2 C0.515 4.475 0.515 4.475 -1 7 C-1.99 6.67 -2.98 6.34 -4 6 C-1.125 1.125 -1.125 1.125 0 0 Z " fill="#062F19" transform="translate(516,496)"/>
<path d="M0 0 C2.97 0 5.94 0 9 0 C6.77810176 2.22189824 4.91517292 2.92598892 2 4 C1.34 2.68 0.68 1.36 0 0 Z " fill="#0A4623" transform="translate(593,438)"/>
<path d="M0 0 C3.37462715 0.54723683 5.08235 1.0549 8 3 C7.67 3.99 7.34 4.98 7 6 C5.83054208 5.19152271 4.66449539 4.37810888 3.5 3.5625 C2.8503125 3.11003906 2.200625 2.65757812 1.53125 2.19140625 C1.0259375 1.79824219 0.520625 1.40507812 0 1 C0 0.67 0 0.34 0 0 Z " fill="#052414" transform="translate(628,422)"/>
<path d="M0 0 C0.66 1.32 1.32 2.64 2 4 C1.01 4.66 0.02 5.32 -1 6 C-1.66 5.67 -2.32 5.34 -3 5 C-1.125 1.125 -1.125 1.125 0 0 Z " fill="#1CC95A" transform="translate(514,690)"/>
<path d="M0 0 C1.65 0 3.3 0 5 0 C4.67 0.66 4.34 1.32 4 2 C3.34 2 2.68 2 2 2 C2 2.66 2 3.32 2 4 C2.66 4 3.32 4 4 4 C3.67 4.99 3.34 5.98 3 7 C2.34 7 1.68 7 1 7 C0.67 4.69 0.34 2.38 0 0 Z " fill="#24DC69" transform="translate(276,671)"/>
<path d="M0 0 C1.98 0.495 1.98 0.495 4 1 C3.01 1.495 3.01 1.495 2 2 C1.53476937 3.89533342 1.53476937 3.89533342 1.375 6.0625 C1.25125 7.361875 1.1275 8.66125 1 10 C0.67 10 0.34 10 0 10 C-1.125 2.25 -1.125 2.25 0 0 Z " fill="#22D866" transform="translate(228,621)"/>
<path d="M0 0 C0.33 0.66 0.66 1.32 1 2 C-0.65 3.32 -2.3 4.64 -4 6 C-4 5.34 -4 4.68 -4 4 C-5.65 4 -7.3 4 -9 4 C-6.06279492 2.47700477 -3.0831351 1.19899698 0 0 Z " fill="#2FF37C" transform="translate(483,541)"/>
<path d="M0 0 C2.64 0.33 5.28 0.66 8 1 C8 1.66 8 2.32 8 3 C7.34 3 6.68 3 6 3 C5.67 3.66 5.34 4.32 5 5 C3.35 3.35 1.7 1.7 0 0 Z " fill="#08351C" transform="translate(450,534)"/>
<path d="M0 0 C0.66 0 1.32 0 2 0 C1.125 4.75 1.125 4.75 0 7 C-0.66 7 -1.32 7 -2 7 C-1.125 2.25 -1.125 2.25 0 0 Z " fill="#072A18" transform="translate(741,410)"/>
</svg>
